<svg width="34" height="36" viewBox="0 0 34 36" fill="none" xmlns="http://www.w3.org/2000/svg">
<path d="M20.9723 34.2206C20.4012 34.4337 19.8263 34.6148 19.2659 34.7643C18.2777 35.028 17.248 35.2125 16.2005 35.3136C14.4162 35.4856 12.5786 35.4164 10.8014 35.0842C9.02196 34.752 7.30236 34.157 5.75661 33.2782C5.16741 32.943 4.6032 32.5669 4.07063 32.1482C0.735626 29.5269 1.23715 24.7312 4.31397 22.0517C4.54868 21.8469 4.79869 21.6547 5.06293 21.4769C5.51736 21.1709 6.00858 20.8968 6.52812 20.6535C8.15595 19.891 10.0603 19.4318 11.9757 19.244C13.2728 19.1167 14.5754 19.1138 15.8004 19.2255C16.4989 19.2887 17.1725 19.3894 17.8056 19.5255C19.0703 19.7976 20.3818 20.2252 21.6053 20.8296C23.4556 21.7436 25.1043 23.0618 26.083 24.8546C28.7258 29.6962 24.9462 32.7367 20.9723 34.2206Z" fill="black"/>
<path d="M10.4286 24.5326C10.0025 26.9646 9.91647 29.3537 10.1373 31.816C10.2311 32.8595 10.5523 33.9793 10.8014 35.0842C9.022 34.752 7.30241 34.157 5.75665 33.2782C5.55874 32.3813 5.49408 31.4324 5.3846 30.3414C5.03268 26.8224 5.95078 23.8483 6.52817 20.6533C8.156 19.8909 10.0603 19.4316 11.9757 19.2439C11.734 19.9035 11.2707 20.6426 11.1206 21.1273C10.7829 22.2206 10.6273 23.3981 10.4286 24.5326Z" fill="#FEBC12"/>
<path d="M20.6258 27.7205C20.5847 27.7205 20.5028 27.7205 20.4619 27.7205C20.4619 27.6795 20.4619 27.5976 20.4619 27.5567C20.4209 27.5567 20.339 27.5567 20.2981 27.5567C20.1751 27.4748 20.0932 27.3928 20.1343 27.229C20.0932 27.229 20.0113 27.229 19.9704 27.229C19.6836 27.188 19.9294 26.7784 19.6426 26.9012C19.7245 26.6963 19.3968 26.6144 19.4787 26.4095C19.4377 26.4095 19.3558 26.4095 19.3149 26.4095C19.3149 26.3684 19.3149 26.2865 19.3149 26.2456C19.2739 26.2456 19.1919 26.2456 19.151 26.2456C19.151 26.2046 19.151 26.1227 19.151 26.0818C19.11 26.0818 19.0281 26.0818 18.9872 26.0818C18.9462 25.9999 19.0282 25.836 18.9872 25.754C18.9462 25.754 18.8642 25.754 18.8234 25.754C18.7823 25.672 18.8644 25.5082 18.8234 25.4261C18.7823 25.4261 18.7004 25.4261 18.6595 25.4261C18.6595 25.1393 18.3727 25.0574 18.4957 24.7706C18.4546 24.7706 18.3727 24.7706 18.3318 24.7706C18.2908 24.6887 18.3729 24.5248 18.3318 24.4428C18.2908 24.4428 18.2089 24.4428 18.168 24.4428C18.127 24.3608 18.209 24.197 18.168 24.1151C18.127 24.1151 18.045 24.1151 18.0041 24.1151C17.9631 23.9512 18.0452 23.7872 18.0041 23.6234C17.9631 23.6234 17.8812 23.6234 17.8403 23.6234C17.7993 23.5415 17.8813 23.3776 17.8403 23.2957C17.7993 23.2957 17.7173 23.2957 17.6765 23.2957C17.6356 23.1319 17.7175 22.9679 17.6765 22.804C17.6356 22.7221 17.5535 22.7221 17.5126 22.6402C17.4716 22.4763 17.4307 22.2715 17.4307 22.1485C17.2422 21.2433 17.2965 20.3381 17.3383 19.433C16.8447 19.343 16.33 19.2735 15.8009 19.2257C14.4829 22.644 14.4738 27.2987 14.927 30.6329C15.0918 31.8423 15.4608 34.174 16.2013 35.3138C17.249 35.2126 18.2785 35.0282 19.2667 34.7644C19.8272 34.6148 20.402 34.4338 20.9732 34.2208C20.8031 33.2592 20.6237 32.2824 20.6265 31.2483C20.6297 30.1343 20.642 29.0134 20.6792 27.8956C20.6618 27.8916 20.6444 27.8879 20.6265 27.8845C20.6258 27.8433 20.6258 27.7614 20.6258 27.7205Z" fill="#FEBC12"/>
<path d="M21.6051 20.8296C20.3817 20.2252 19.0702 19.7975 17.8053 19.5255C17.6518 19.4925 17.4958 19.4617 17.3377 19.4328C17.2959 20.338 17.2416 21.2433 17.4301 22.1483C17.4301 22.2713 17.4711 22.476 17.512 22.64C17.5529 22.7219 17.635 22.7219 17.6759 22.8039C17.7169 22.9677 17.635 23.1316 17.6759 23.2956C17.7169 23.2956 17.7988 23.2956 17.8397 23.2956C17.8807 23.3775 17.7987 23.5413 17.8397 23.6232C17.8807 23.6232 17.9627 23.6232 18.0035 23.6232C18.0446 23.7871 17.9625 23.9511 18.0035 24.1149C18.0446 24.1149 18.1265 24.1149 18.1674 24.1149C18.2084 24.1968 18.1264 24.3607 18.1674 24.4426C18.2084 24.4426 18.2904 24.4426 18.3312 24.4426C18.3723 24.5245 18.2902 24.6884 18.3312 24.7704C18.3723 24.7704 18.4542 24.7704 18.4951 24.7704C18.3721 25.0572 18.6589 25.1392 18.6589 25.426C18.7 25.426 18.7819 25.426 18.8228 25.426C18.8638 25.5079 18.7817 25.6717 18.8228 25.7538C18.8638 25.7538 18.9457 25.7538 18.9866 25.7538C19.0276 25.8357 18.9456 25.9996 18.9866 26.0816C19.0276 26.0816 19.1096 26.0816 19.1504 26.0816C19.1504 26.1227 19.1504 26.2046 19.1504 26.2455C19.1915 26.2455 19.2734 26.2455 19.3143 26.2455C19.3143 26.2865 19.3143 26.3684 19.3143 26.4093C19.3553 26.4093 19.4372 26.4093 19.4781 26.4093C19.3962 26.6142 19.7239 26.6961 19.642 26.901C19.9288 26.778 19.683 27.1878 19.9698 27.2288C20.0109 27.2288 20.0928 27.2288 20.1337 27.2288C20.0926 27.3927 20.1747 27.4746 20.2975 27.5565C20.3385 27.5565 20.4205 27.5565 20.4613 27.5565C20.4613 27.5976 20.4613 27.6795 20.4613 27.7204C20.5024 27.7204 20.5843 27.7204 20.6252 27.7204C20.6252 27.7614 20.6252 27.8433 20.6252 27.8842C20.6431 27.8875 20.6605 27.8913 20.6779 27.8953C20.7192 26.6558 20.7912 25.4197 20.9165 24.2005C21.0118 23.2818 21.447 22.0022 21.6051 20.8296Z" fill="#E19326"/>
<path d="M15.364 17.8848C14.52 22.8913 9.613 22.1359 6.13778 20.347C3.68513 19.0844 1.32425 17.1545 0.378901 14.477C-1.3578 9.55774 3.14591 4.39926 8.3807 6.26316C11.7292 7.45549 13.1232 10.4723 14.4765 13.4544C15.0858 14.7968 15.6142 16.4017 15.364 17.8848Z" fill="#6CBCC9"/>
<path d="M22.3278 19.3694C17.9698 19.2287 18.0462 14.9656 19.1677 11.8016C19.9592 9.56863 21.3292 7.33662 23.4988 6.22318C27.4848 4.17757 32.3946 7.41506 31.4125 12.0852C30.7842 15.0724 28.3774 16.6069 25.9958 18.1028C24.9237 18.7764 23.6189 19.4112 22.3278 19.3694Z" fill="#6CBCC9"/>
<path d="M23.2466 18.9667C18.9693 23.7473 13.6957 20.0646 10.7838 16.1345C8.72865 13.3608 7.21939 9.93766 7.86476 6.5592C9.05058 0.352403 17.7303 -2.43565 22.662 2.6085C25.8165 5.83508 25.4758 9.83515 25.1104 13.7746C24.9456 15.5483 24.5136 17.5506 23.2466 18.9667Z" fill="#A7DDE9"/>
<path d="M30.7944 15.8571C34.1107 17.8928 33.77 22.513 32.4066 25.975C31.0195 29.4969 26.1624 29.0678 23.078 27.5911C21.4558 26.8144 19.7206 25.6313 18.8936 23.8885C17.893 21.7799 18.5647 19.289 19.9753 17.4819C22.6289 14.082 27.5061 13.8387 30.7944 15.8571Z" fill="#FEBC12"/>
<path d="M19.5764 19.2414C19.298 21.3915 21.6401 22.8696 23.5973 22.4305C25.8505 21.9248 26.2384 18.5723 24.6065 17.2047C23.3734 16.1714 21.6311 16.2134 20.5182 17.4024C19.9452 18.0149 19.6538 18.6433 19.5764 19.2414Z" fill="white"/>
<path d="M24.088 20.3646C25.566 19.7059 25.3426 17.6085 23.7511 17.283C22.3356 16.9938 21.1801 18.6825 22.1692 19.8218C22.6655 20.3935 23.3498 20.6935 24.088 20.3646Z" fill="black"/>
<path d="M24.1527 18.969C24.6809 19.0614 25.0602 18.3716 24.6698 17.9813C24.3574 17.6687 23.8082 17.701 23.7031 18.1397C23.6156 18.5049 23.742 18.8971 24.1527 18.969Z" fill="white"/>
<path d="M26.6873 20.1757C26.3875 22.4907 28.9093 24.0822 31.0165 23.6093C33.4425 23.0649 33.8603 19.4551 32.1033 17.9828C30.7756 16.8701 28.8996 16.9152 27.7014 18.1957C27.0843 18.855 26.7707 19.5317 26.6873 20.1757Z" fill="white"/>
<path d="M31.545 21.385C33.1364 20.6759 32.8959 18.4175 31.1824 18.0671C29.6583 17.7556 28.4141 19.574 29.479 20.8007C30.0135 21.4162 30.7503 21.7392 31.545 21.385Z" fill="black"/>
<path d="M31.6147 19.8823C32.1833 19.9817 32.5917 19.239 32.1715 18.8188C31.8351 18.4823 31.2438 18.517 31.1306 18.9893C31.0364 19.3826 31.1725 19.8049 31.6147 19.8823Z" fill="white"/>
<path d="M23.3006 15.1543C23.1645 14.9134 23.017 14.649 22.8124 14.4588C22.5722 14.2354 22.2306 14.2727 22.1098 14.5976C22.0456 14.7704 22.1764 14.9676 22.3428 15.0147C22.5307 15.0678 22.6957 14.9541 22.7599 14.7816C22.7184 14.8348 22.6769 14.8879 22.6354 14.9411C22.5797 14.9555 22.5239 14.9699 22.4682 14.9841C22.4285 14.9814 22.3911 14.9711 22.3559 14.953C22.3186 14.9209 22.3154 14.9188 22.346 14.9467C22.3898 14.9874 22.4264 15.0362 22.4629 15.0831C22.558 15.2061 22.6345 15.349 22.7108 15.4841C22.9254 15.8636 23.5153 15.5341 23.3006 15.1543Z" fill="black"/>
<path d="M30.9611 15.9555C30.8999 15.9016 30.9187 15.9559 31.0173 16.1184C31.0191 16.152 31.012 16.1837 30.9961 16.2132C31.0164 16.1837 31.0143 16.1844 30.99 16.2153C31.004 16.1991 31.0185 16.1837 31.0336 16.1685C31.1009 16.0992 31.1657 16.0521 31.2376 16.0035C31.3292 15.9414 31.4258 15.8872 31.5244 15.8372C31.5365 15.8312 31.6548 15.7803 31.6101 15.7972C31.6372 15.7869 31.7784 15.7615 31.6786 15.7704C31.8618 15.7542 32.0173 15.6322 32.0187 15.4347C32.0199 15.2639 31.8666 15.0783 31.683 15.0946C31.3341 15.1255 31.01 15.3298 30.7367 15.5366C30.493 15.7209 30.1289 16.1426 30.474 16.4241C30.6166 16.5406 30.8073 16.5721 30.9517 16.4334C31.0726 16.3174 31.1037 16.0719 30.9611 15.9555Z" fill="black"/>
<path d="M23.5514 23.8319C24.775 24.3062 25.8396 24.4291 27.1108 23.8417C26.7393 25.849 24.461 25.6667 23.6512 24.1411" fill="#F15D5E"/>
</svg>
