<svg width="50" height="47" viewBox="0 0 50 47" fill="none" xmlns="http://www.w3.org/2000/svg">
<path d="M23.2268 36.682C22.9364 35.2058 22.8693 33.6297 22.8646 32.1303C22.8619 31.2532 22.8519 30.2981 23.0996 29.4476C23.7593 27.1838 25.6122 30.1112 26.3262 30.8018C28.211 32.6245 29.8862 34.4239 31.0853 36.7881C31.6641 37.9296 33.0107 41.0752 32.2915 42.3786C31.8921 43.1022 30.5833 42.9798 29.835 42.9499C28.1316 42.8818 25.036 42.8421 24.2704 41.0182C23.7382 39.7509 23.4955 38.0471 23.2268 36.682Z" fill="#CE1F4A"/>
<path d="M25.4095 21.5468C26.5542 20.2109 27.7006 18.7503 28.9699 17.5179C31.5799 14.9835 35.4407 13.9105 39.1151 13.7196C41.8339 13.5783 44.2247 14.163 45.757 16.4238C47.2098 18.5672 47.2673 21.4101 45.536 23.3523C44.6923 24.2987 43.6508 25.0796 42.8553 26.0658C42.1605 26.9271 41.7408 27.9477 41.2475 28.9162C40.1559 31.06 39.058 33.1512 37.7037 35.1478C35.8777 37.8402 33.1879 38.459 30.1318 36.6368C28.0906 35.4199 26.6469 33.2209 25.7529 31.1437C25.0755 29.5699 24.134 28.0258 23.8637 26.3297C23.5836 24.5711 24.2148 22.9374 25.3579 21.6071C25.3751 21.587 25.3923 21.567 25.4095 21.5468Z" fill="#F05689"/>
<path d="M29.8447 21.9931C28.9345 22.0048 25.9459 22.7051 25.4306 21.6367C24.8946 20.5255 27.4084 19.4803 28.1295 19.1977C29.9313 18.4915 31.6094 17.8111 33.5383 17.4769C35.3116 17.1698 37.6784 16.5082 39.1346 17.7749C40.5132 18.9742 39.8032 20.1028 38.1806 20.6206C35.5223 21.4691 32.648 21.957 29.8447 21.9931Z" fill="#F285B1"/>
<path d="M32.8462 23.2127C33.835 23.5269 36.2672 24.8503 35.1841 26.0781C34.2481 27.1393 32.1006 26.3423 30.9932 26.0482C29.6267 25.6855 28.1521 25.1564 27.0792 24.2185C25.8318 23.1281 27.0839 22.5882 28.1469 22.6118C29.7333 22.647 31.3209 22.7281 32.8462 23.2127Z" fill="#F285B1"/>
<path d="M30.3034 28.6675C30.7458 29.606 31.4302 32.2891 29.7935 32.3305C28.379 32.3662 27.5024 30.25 26.9645 29.2382C26.3008 27.9899 25.6855 26.5491 25.6431 25.1248C25.5937 23.4688 26.8411 24.0191 27.5471 24.8144C28.6005 26.001 29.621 27.2199 30.3034 28.6675Z" fill="#F285B1"/>
<path d="M14.3847 32.8397C15.628 31.9925 16.7826 30.9176 17.8387 29.8532C18.4566 29.2306 19.1344 28.5578 19.5552 27.7783C20.6753 25.7032 17.3004 26.4863 16.3069 26.4766C13.6849 26.4508 11.2289 26.5556 8.71498 27.3968C7.50128 27.803 4.33375 29.0969 3.93047 30.5301C3.70674 31.3257 4.7244 32.1577 5.27825 32.6619C6.53876 33.8095 8.77063 35.955 10.5965 35.1942C11.8656 34.6654 13.2349 33.623 14.3847 32.8397Z" fill="#CE1F4A"/>
<path d="M10.6354 3.67063C9.23691 4.41701 9.00107 7.26459 8.92741 8.66974C8.81032 10.9047 9.07181 13.4596 7.76705 15.4077C6.32779 17.5566 4.57323 19.4604 3.65186 21.924C2.68201 24.5169 3.86976 26.4524 6.10643 27.8022C9.47113 29.8329 13.9356 27.9011 17.5037 27.4832C19.0853 27.2979 20.7729 27.415 22.2633 26.8C23.6977 26.2081 24.2111 25.0247 24.6351 23.6187C25.0416 22.2705 25.3268 20.8768 25.345 19.4645C25.3605 18.2636 24.8943 17.2655 24.6239 16.1059C24.0497 13.6427 23.4886 11.0595 21.6463 9.19531C20.0142 7.54377 18.153 5.8801 16.0883 4.84231C14.5165 4.05227 12.4294 2.71316 10.6354 3.67063Z" fill="#F05689"/>
<path d="M23.6624 33.7225C23.1907 34.9518 22.5251 36.1796 21.6508 37.1353C20.7624 38.1071 19.6588 38.7971 18.3252 38.9214C15.6625 39.169 13.5097 36.4412 14.0265 33.8932C14.0511 33.7714 14.0814 33.6516 14.1166 33.5336C14.4567 32.3949 15.2672 31.4265 16.1436 30.5396C16.7867 29.8889 17.4652 29.2818 18.0195 28.6832C18.3287 28.3496 18.6424 28.0192 18.9561 27.6884C19.7397 26.863 20.5237 26.0355 21.2351 25.1505C21.6346 24.6535 22.0115 24.1386 22.3526 23.5956C22.9768 22.6021 24.4054 21.5018 25.4606 22.7297C25.8893 23.2284 25.649 23.1181 25.5452 23.7206C25.4086 24.5148 25.238 25.3132 25.1135 26.0894C25.0966 26.1944 25.0804 26.2995 25.0644 26.4046C24.9085 27.4334 24.7972 28.4613 24.6576 29.4794C24.5658 30.1494 24.4616 30.8149 24.3249 31.4733C24.1779 32.1789 23.9584 32.9508 23.6624 33.7225Z" fill="black"/>
<path d="M24.6577 29.4794C23.3247 29.4169 21.9515 29.0336 20.7329 28.5254C20.2766 28.3351 19.5845 28.0521 18.9562 27.6883C19.7398 26.8629 20.5237 26.0354 21.2352 25.1504C21.6454 25.4067 22.0394 25.6175 22.1967 25.6829C23.141 26.0742 24.0942 26.3021 25.0644 26.4044C24.9086 27.4333 24.7971 28.4613 24.6577 29.4794Z" fill="#353535"/>
<path d="M23.6625 33.7225C23.1907 34.9518 22.5251 36.1797 21.6508 37.1354C20.5637 37.0639 19.2639 36.6345 18.6102 36.4846C16.7583 36.0601 15.2663 35.0084 14.1167 33.5335C14.4567 32.3948 15.2673 31.4264 16.1436 30.5395C16.8602 31.1742 17.7662 31.6568 18.5329 32.0477C20.087 32.8411 21.8661 33.8025 23.6625 33.7225Z" fill="#353535"/>
<path d="M18.3648 15.4111C18.9202 16.0479 20.1222 17.9978 21.1366 17.6776C22.4997 17.2475 20.9931 14.665 20.6942 13.9328C19.9885 12.2049 17.9287 9.88125 16.0355 9.52632C14.9245 9.31807 13.4763 9.80285 13.7358 11.2348C13.9502 12.4187 15.477 12.8326 16.3349 13.4158C17.1665 13.9812 17.704 14.6534 18.3648 15.4111Z" fill="#F285B1"/>
<path d="M19.4424 20.822C19.9079 20.9787 20.7952 21.2195 21.1527 20.5806C21.7121 19.5808 19.8571 18.51 19.3044 18.1847C17.9998 17.4166 14.3643 14.1814 12.7974 16.6064C11.8434 18.0829 13.4798 18.5941 14.3499 19.0421C15.9334 19.8577 17.7682 20.2578 19.4412 20.8216C19.4418 20.8217 19.4421 20.8219 19.4424 20.822Z" fill="#F285B1"/>
<path d="M20.9742 21.8574C19.5305 21.6826 10.4761 21.3207 11.2738 24.2185C11.665 25.6395 15.3677 24.7936 16.4251 24.7124C17.8657 24.6019 19.959 24.1131 21.2628 23.4822C21.6858 23.2776 21.9983 22.9327 22.2931 22.5844C21.9897 22.2058 21.3776 21.8505 20.952 21.9412" fill="#F285B1"/>
<path d="M28.2362 13.5605C31.0207 15.2094 30.7985 19.0557 29.7105 21.9524C28.6036 24.8993 24.5593 24.6066 21.975 23.4195C20.616 22.7952 19.1574 21.8344 18.4468 20.3961C17.5869 18.6559 18.1126 16.5758 19.2616 15.0546C21.4231 12.1924 25.4754 11.9256 28.2362 13.5605Z" fill="#BA202C"/>
<path d="M18.9531 16.5229C18.75 18.3144 20.7171 19.5125 22.3386 19.1215C24.2054 18.6713 24.4838 15.8784 23.1088 14.7629C22.0697 13.92 20.6216 13.9779 19.7119 14.9814C19.2435 15.498 19.0096 16.0245 18.9531 16.5229Z" fill="white"/>
<path d="M22.7194 17.397C23.9396 16.8298 23.7262 15.0886 22.3986 14.8391C21.2178 14.6173 20.2792 16.0369 21.1166 16.971C21.537 17.44 22.11 17.6803 22.7194 17.397Z" fill="black"/>
<path d="M22.7548 16.2357C23.1951 16.3057 23.5014 15.727 23.1717 15.4075C22.9078 15.1519 22.4516 15.1859 22.3699 15.552C22.3019 15.8569 22.4123 16.1815 22.7548 16.2357Z" fill="white"/>
<path d="M24.8782 17.2059C24.6596 19.1348 26.7774 20.4248 28.5235 20.0038C30.5335 19.519 30.8333 16.512 29.3527 15.3107C28.234 14.4031 26.6747 14.4654 25.6953 15.546C25.191 16.1024 24.9391 16.6692 24.8782 17.2059Z" fill="white"/>
<path d="M28.9335 18.147C30.2473 17.5363 30.0175 15.6616 28.5881 15.3929C27.3167 15.1541 26.3061 16.6825 27.2078 17.6884C27.6605 18.1933 28.2773 18.4521 28.9335 18.147Z" fill="black"/>
<path d="M28.9716 16.8966C29.4458 16.9718 29.7754 16.3489 29.4205 16.005C29.1364 15.7297 28.6451 15.7663 28.5572 16.1604C28.484 16.4888 28.6029 16.8382 28.9716 16.8966Z" fill="white"/>
<path d="M22.319 20.2874C23.3427 20.6655 24.2296 20.7537 25.2788 20.2484C24.9965 21.9225 23.0996 21.8009 22.406 20.543" fill="#F15D5E"/>
<path d="M26.6958 13.3625C27.3353 11.7978 27.7647 10.1434 28.6607 8.69414C29.0082 8.13221 29.4159 7.59677 29.9552 7.20728C30.3989 6.88697 30.9032 6.64179 31.4396 6.52711C31.8731 6.43455 32.3778 6.45251 32.7304 6.74363C33.1399 7.08193 33.2903 7.68389 33.2549 8.19503C33.1966 9.03661 32.4382 9.60193 31.6508 9.74383C31.5 9.77103 31.2871 9.77689 31.1081 9.75682C31.1519 9.76168 31.0813 9.75205 31.0794 9.75167C31.0582 9.74824 31.0371 9.74388 31.016 9.73952C30.9748 9.73104 30.934 9.72008 30.8935 9.70808C30.7972 9.67958 30.7862 9.67485 30.6881 9.61922C30.5589 9.54593 30.4809 9.46731 30.4078 9.33073C30.3985 9.31333 30.3904 9.29531 30.3822 9.27725C30.4007 9.31807 30.3759 9.25649 30.3747 9.25313C30.3609 9.21355 30.3512 9.1727 30.3427 9.13164C30.3299 9.06991 30.3275 8.95905 30.3341 8.86313C30.3477 8.66228 30.4228 8.41366 30.526 8.22366C30.5759 8.13178 30.5999 8.09991 30.6679 8.03203C30.682 8.01782 30.6972 8.00487 30.7124 7.99179C30.7604 7.95065 30.6789 8.01451 30.7296 7.97963C30.7485 7.96657 30.8457 7.91862 30.8059 7.93459C30.838 7.92168 30.8713 7.91272 30.9049 7.90522C30.9143 7.90315 30.9702 7.89605 30.9163 7.90244C30.9331 7.90042 30.95 7.89967 30.9668 7.89901C31.0006 7.8975 31.0346 7.89962 31.0683 7.90277C31.0137 7.89766 31.1241 7.91538 31.1451 7.92097C31.1787 7.92976 31.2116 7.94126 31.2441 7.95363C31.192 7.93385 31.2868 7.97424 31.3022 7.98221C31.3337 7.99831 31.364 8.01645 31.394 8.03519C31.4117 8.04627 31.5011 8.11175 31.4641 8.08257C31.5093 8.11805 31.5514 8.15744 31.5915 8.19848C31.611 8.2183 31.6293 8.2392 31.6473 8.26029C31.6536 8.26776 31.6879 8.31154 31.6539 8.26687C31.6634 8.27935 31.6724 8.29236 31.6814 8.30526C31.6959 8.3261 31.7089 8.34767 31.7217 8.36959C31.7302 8.38413 31.7698 8.4694 31.744 8.40797C31.7526 8.42834 31.7593 8.44933 31.7655 8.47047C31.7691 8.48247 31.7717 8.49475 31.7742 8.50703C31.7834 8.55121 31.7689 8.45478 31.7728 8.49866C31.7745 8.51734 31.7738 8.53621 31.7723 8.55487C31.78 8.46175 31.7404 8.61189 31.7795 8.52502C31.7553 8.57856 31.791 8.51881 31.7787 8.53336C31.7356 8.58367 31.805 8.52255 31.7599 8.55022C31.7108 8.58039 31.7964 8.54098 31.7376 8.561C31.722 8.56624 31.6319 8.58292 31.6834 8.57616C31.6076 8.58599 31.5301 8.58225 31.4542 8.57562C31.176 8.55139 31.1816 8.98532 31.4582 9.00949C31.7895 9.03829 32.1583 8.9404 32.2048 8.56179C32.2384 8.28655 32.0273 8.00776 31.838 7.83325C31.5994 7.61316 31.277 7.45136 30.946 7.46589C30.5346 7.48407 30.2363 7.78969 30.0812 8.14992C29.896 8.58008 29.8175 9.07425 30.0153 9.51267C30.1683 9.85158 30.5146 10.062 30.8633 10.1489C31.6753 10.3512 32.6246 10.008 33.1764 9.39596C33.8871 8.60784 33.8675 7.24976 33.103 6.49591C32.2888 5.69292 30.9618 6.0991 30.1029 6.59544C29.0691 7.19282 28.3858 8.19807 27.8564 9.2442C27.2063 10.5285 26.8198 11.9219 26.2768 13.2507C26.2321 13.3604 26.3276 13.4886 26.4307 13.516C26.5557 13.5497 26.651 13.4719 26.6958 13.3625Z" fill="#F15D5E"/>
<path d="M24.9479 12.858C25.2984 11.3613 25.3413 9.78183 25.2184 8.25465C25.1158 6.97976 24.9254 5.67669 24.1341 4.63043C23.5659 3.87946 22.6444 3.24468 21.6824 3.65435C21.1364 3.8868 20.749 4.38963 20.4629 4.8909C20.2315 5.29622 20.0673 5.8002 20.105 6.27123C20.1631 6.99746 20.7451 7.49612 21.4446 7.5918C22.0792 7.67856 22.8292 7.48831 23.1727 6.90225C23.3698 6.56615 23.3478 6.17817 23.2522 5.81417C23.1476 5.41545 22.8668 5.02872 22.4158 5.04178C21.7565 5.06079 21.0616 6.01515 21.724 6.50464C21.8908 6.62787 22.1009 6.66712 22.3024 6.68986C22.42 6.70316 22.5183 6.57814 22.5173 6.47096C22.5162 6.34218 22.4158 6.26936 22.2984 6.25599C22.2524 6.25081 22.2068 6.24091 22.1618 6.23017C22.1378 6.2245 22.1143 6.21712 22.0908 6.20978C22.0894 6.20927 22.0195 6.18159 22.0608 6.19959C22.0244 6.1837 21.9903 6.16331 21.9576 6.14081C22.0047 6.17308 21.8888 6.05815 21.9281 6.11239C21.919 6.09988 21.9114 6.08626 21.904 6.07268C21.8789 6.02733 21.919 6.11659 21.9018 6.06838C21.8968 6.05435 21.8935 6.03966 21.8902 6.02523C21.8788 5.97509 21.8942 6.07313 21.8902 6.02164C21.8887 6.00274 21.8989 5.90984 21.8891 5.97259C21.8948 5.93556 21.9059 5.89968 21.9185 5.8645C21.9375 5.8115 21.8981 5.90867 21.9223 5.85708C21.9296 5.84174 21.9377 5.82676 21.9459 5.81196C21.9627 5.78147 21.9824 5.75258 22.0027 5.72441C21.9739 5.7644 22.0368 5.68634 22.0488 5.67366C22.0777 5.64307 22.1094 5.61529 22.142 5.58873C22.1068 5.61736 22.1863 5.55988 22.2011 5.55084C22.2313 5.53247 22.2631 5.51675 22.2954 5.5024C22.2511 5.52227 22.3423 5.48917 22.3587 5.48497C22.3752 5.48065 22.392 5.47779 22.4087 5.47477C22.3535 5.48441 22.425 5.47552 22.4366 5.47514C22.4533 5.47461 22.47 5.47574 22.4866 5.47682C22.4297 5.47304 22.483 5.47697 22.495 5.47935C22.5116 5.48264 22.5278 5.48777 22.544 5.49277C22.5987 5.50993 22.5015 5.4718 22.5541 5.49683C22.5712 5.50499 22.6474 5.55936 22.6162 5.53351C22.6315 5.54614 22.6454 5.5602 22.6592 5.57423C22.6649 5.58002 22.7112 5.63763 22.6932 5.61282C22.7513 5.69293 22.7867 5.77694 22.8166 5.8693C22.8369 5.93187 22.8514 5.99612 22.8649 6.06047C22.8702 6.0862 22.8752 6.11212 22.8802 6.13791C22.89 6.18802 22.8842 6.15609 22.8876 6.18545C22.8963 6.26224 22.896 6.33993 22.8889 6.41694C22.8937 6.36584 22.8795 6.46638 22.8757 6.48345C22.8668 6.52296 22.8545 6.56155 22.8407 6.59959C22.821 6.65403 22.8604 6.55607 22.8369 6.60854C22.8301 6.62385 22.8222 6.63889 22.8145 6.65384C22.7991 6.6836 22.7815 6.71193 22.763 6.7399C22.7538 6.75375 22.744 6.76718 22.7341 6.7807C22.767 6.7361 22.7331 6.78085 22.7267 6.78814C22.7015 6.81804 22.6739 6.84565 22.6455 6.8725C22.5785 6.93567 22.5995 6.91845 22.5142 6.97299C22.4849 6.99173 22.4545 7.00867 22.424 7.025C22.4056 7.03489 22.3069 7.07981 22.3473 7.06305C22.2807 7.09066 22.2119 7.11244 22.1422 7.13094C22.1068 7.14033 22.071 7.14809 22.0352 7.15514C22.0171 7.15876 21.9989 7.16179 21.9808 7.16486C21.9471 7.17054 22.0024 7.16288 21.9447 7.16951C21.8708 7.17803 21.7961 7.18098 21.7217 7.18069C21.6843 7.18056 21.6471 7.17868 21.6097 7.17621C21.5911 7.175 21.5725 7.17323 21.5539 7.17147C21.5415 7.17025 21.5292 7.1689 21.5169 7.16742C21.5437 7.17083 21.5446 7.17078 21.5191 7.1672C21.4458 7.1564 21.3733 7.13991 21.302 7.11985C21.2666 7.1099 21.2318 7.09815 21.1972 7.08591C21.127 7.06091 21.1837 7.08357 21.1165 7.05204C21.0513 7.02144 20.989 6.98486 20.9295 6.94444C20.9146 6.93441 20.9003 6.92371 20.886 6.91313C20.9279 6.94416 20.8807 6.90813 20.8746 6.90293C20.8426 6.87619 20.8127 6.84725 20.7838 6.81731C20.6978 6.72857 20.6246 6.60218 20.5868 6.48963C20.5292 6.31753 20.5239 6.19121 20.54 5.996C20.5546 5.81768 20.6252 5.57547 20.7054 5.38529C20.9208 4.87487 21.2781 4.35451 21.7766 4.08734C22.1341 3.89569 22.5347 3.92603 22.8776 4.09148C23.2947 4.29283 23.627 4.6468 23.8862 5.02446C24.1853 5.46022 24.4175 5.96528 24.5297 6.48304C24.7553 7.52372 24.8396 8.5955 24.8425 9.65906C24.8453 10.6933 24.7651 11.7378 24.5288 12.7466C24.4651 13.0184 24.884 13.1306 24.9479 12.858Z" fill="#F15D5E"/>
<path d="M27.8588 40.8177C28.6665 40.4583 28.9198 39.2961 28.8564 38.5002C28.7414 37.0558 26.8175 35.8179 25.6103 36.9631C24.3969 38.1142 25.9971 41.6458 27.8588 40.8177Z" fill="#F05689"/>
<path d="M8.03192 33.2027C8.51795 33.7203 9.46664 33.6054 10.0537 33.347C11.119 32.878 11.5496 31.0912 10.3617 30.4781C9.16767 29.8618 6.9115 32.0093 8.03192 33.2027Z" fill="#F05689"/>
<path d="M42.3377 21.5947C43.9806 22.0274 45.456 20.7359 45.3169 19.1051C45.1707 17.3936 42.6826 16.9609 41.4287 17.8228C39.9524 18.8377 40.7917 21.1876 42.3377 21.5947Z" fill="#F285B1"/>
<path d="M12.0058 9.00768C13.2802 9.34336 14.4246 8.34143 14.3167 7.0766C14.2033 5.74909 12.2732 5.41337 11.3006 6.08187C10.1554 6.86904 10.8064 8.69184 12.0058 9.00768Z" fill="#F285B1"/>
<path d="M37.7877 28.4323C39.2063 28.8059 40.48 27.6908 40.36 26.2828C40.2338 24.8052 38.0854 24.4315 37.0028 25.1756C35.7282 26.0519 36.4528 28.0807 37.7877 28.4323Z" fill="#F285B1"/>
<path d="M9.56899 18.2093C10.588 18.4776 11.5029 17.6767 11.4167 16.6653C11.326 15.604 9.78277 15.3356 9.00523 15.8701C8.08961 16.4994 8.61019 17.9568 9.56899 18.2093Z" fill="#F285B1"/>
<path d="M32.3725 35.6903C33.5559 36.0019 34.6185 35.0718 34.5184 33.8972C34.413 32.6645 32.6209 32.3528 31.7178 32.9735C30.6544 33.7045 31.2589 35.3971 32.3725 35.6903Z" fill="#F285B1"/>
<path d="M6.73827 26.347C7.9216 26.6586 8.98429 25.7285 8.8841 24.5539C8.77887 23.3212 6.9866 23.0096 6.08351 23.6302C5.02027 24.3613 5.62482 26.0537 6.73827 26.347Z" fill="#F285B1"/>
</svg>
