<svg width="299" height="108" viewBox="0 0 299 108" fill="none" xmlns="http://www.w3.org/2000/svg">
<path fillRule="evenodd" clipRule="evenodd" d="M37.8324 74.2849H294.144C296.454 74.2849 298.343 76.1748 298.343 78.4837C298.343 80.7938 296.454 82.6826 294.144 82.6826H37.8324C35.5235 82.6826 33.6347 80.7926 33.6347 78.4837C33.6347 76.1736 35.5235 74.2849 37.8324 74.2849Z" fill="#DFEFFF"/>
<path fillRule="evenodd" clipRule="evenodd" d="M191.999 0C178.357 0 167.298 11.0593 167.298 24.7009C167.298 26.4098 167.472 28.0784 167.802 29.6903H166.773C165.23 24.5482 160.462 20.8002 154.818 20.8002C149.487 20.8002 144.936 24.1423 143.149 28.8465C140.335 27.6831 137.251 27.0405 134.016 27.0405C120.805 27.0405 110.096 37.7507 110.096 50.9615C110.096 52.455 110.233 53.9166 110.496 55.3331C108.706 54.5284 106.723 54.0799 104.634 54.0799C96.7371 54.0799 90.3335 60.4835 90.3335 68.3806C90.3335 76.2789 96.7371 82.6814 104.634 82.6814C107.15 82.6814 109.422 82.6814 111.834 82.6814C170.973 82.6814 242.818 82.6814 274.646 82.6814C283.956 82.6814 291.505 75.1345 291.505 65.8232C291.505 57.2858 285.159 50.2325 276.928 49.1177C276.93 49.0455 276.931 48.9745 276.931 48.9035C276.931 39.5922 269.383 32.0441 260.071 32.0441C255.005 32.0441 250.46 34.2808 247.37 37.8205C243.826 35.1341 239.546 33.3708 234.883 32.8927C234.896 32.6761 234.902 32.4595 234.902 32.2406C234.902 25.9222 229.78 20.8014 223.462 20.8014C220.908 20.8014 218.55 21.6381 216.645 23.0523C215.795 10.1788 205.086 0 191.999 0Z" fill="#DFEFFF"/>
<path fillRule="evenodd" clipRule="evenodd" d="M246.447 37.1282C246.805 36.8312 247.335 36.8833 247.631 37.2395C247.928 37.5981 247.877 38.1282 247.519 38.4241C245.87 39.7933 244.468 41.4064 243.385 43.1981C242.328 44.9461 241.573 46.8644 241.184 48.894C241.096 49.3508 240.656 49.6491 240.199 49.5627C240.162 49.5556 240.126 49.5449 240.091 49.5343C239.519 49.3769 238.927 49.2574 238.322 49.1757C237.727 49.0952 237.109 49.0538 236.47 49.0538C232.672 49.0538 229.235 50.5935 226.743 53.0822C224.255 55.571 222.717 59.0089 222.717 62.8078C222.717 63.2729 222.34 63.6504 221.875 63.6504C221.408 63.6504 221.032 63.2729 221.032 62.8078C221.032 58.5438 222.759 54.6858 225.553 51.8917C228.346 49.0976 232.206 47.3698 236.47 47.3698C237.162 47.3698 237.855 47.4183 238.546 47.5118C238.942 47.565 239.332 47.6349 239.719 47.7165C240.183 45.8041 240.938 43.9946 241.945 42.3295C243.126 40.3744 244.652 38.617 246.447 37.1282Z" fill="#79C8FF"/>
<path fillRule="evenodd" clipRule="evenodd" d="M273.076 58.7628C273.241 58.3297 273.726 58.1096 274.159 58.2717C274.594 58.435 274.812 58.9202 274.65 59.3557C273.648 62.0055 271.857 64.2682 269.562 65.854C267.327 67.3972 264.622 68.3002 261.708 68.3002C261.244 68.3002 260.867 67.9239 260.867 67.4576C260.867 66.9925 261.243 66.615 261.708 66.615C264.274 66.615 266.65 65.8233 268.605 64.4718C270.621 63.0789 272.196 61.0919 273.076 58.7628Z" fill="#79C8FF"/>
<path fillRule="evenodd" clipRule="evenodd" d="M167.841 31.1258C167.394 31.2489 166.93 30.9873 166.807 30.54C166.683 30.0938 166.946 29.6311 167.392 29.5068C168.055 29.3246 168.737 29.1837 169.429 29.0902C170.119 28.9968 170.814 28.9482 171.506 28.9482C175.769 28.9482 179.628 30.6761 182.422 33.4702C185.216 36.2631 186.943 40.1235 186.943 44.3863C186.943 44.8514 186.568 45.2289 186.1 45.2289C185.635 45.2289 185.259 44.8514 185.259 44.3863C185.259 40.5886 183.719 37.1507 181.232 34.6619C178.743 32.1731 175.304 30.6335 171.506 30.6335C170.865 30.6335 170.248 30.6749 169.654 30.7565C169.034 30.8394 168.429 30.9636 167.841 31.1258Z" fill="#79C8FF"/>
<path fillRule="evenodd" clipRule="evenodd" d="M208.977 13.864C209.142 14.2995 208.922 14.7848 208.489 14.9481C208.053 15.1114 207.569 14.8924 207.405 14.4581C206.525 12.1291 204.951 10.1433 202.935 8.74918C200.98 7.39651 198.602 6.60478 196.038 6.60478C195.573 6.60478 195.195 6.22726 195.195 5.76217C195.195 5.29589 195.573 4.91956 196.038 4.91956C198.951 4.91956 201.657 5.8237 203.89 7.36573C206.183 8.95155 207.976 11.2143 208.977 13.864Z" fill="#79C8FF"/>
<path fillRule="evenodd" clipRule="evenodd" d="M26.3033 78.9914C14.541 81.4707 5.89362 89.7584 5.89362 99.6035H39.1378H61.4007H189.791H209.149H245.296C245.296 89.9667 237.01 81.821 225.626 79.1571C224.136 72.2967 218.476 66.9937 211.432 66.041C211.433 65.9688 211.434 65.8978 211.434 65.8256C211.434 56.5143 203.886 48.9674 194.575 48.9674C189.509 48.9674 184.963 51.203 181.873 54.7438C178.33 52.0574 174.049 50.2941 169.387 49.8148C169.4 49.5994 169.405 49.3828 169.405 49.1639C169.405 42.8455 164.283 37.7223 157.966 37.7223C155.412 37.7223 153.054 38.5602 151.148 39.9756C150.301 27.1021 139.591 16.9221 126.503 16.9221C112.862 16.9221 101.802 27.9814 101.802 41.623C101.802 43.3319 101.976 45.0005 102.307 46.6124H101.278C99.7349 41.4703 94.9668 37.7223 89.3229 37.7223C83.9915 37.7223 79.4412 41.0656 77.6542 45.7698C74.8399 44.6064 71.7571 43.9638 68.5215 43.9638C55.3107 43.9638 44.6005 54.6728 44.6005 67.8836C44.6005 69.3771 44.7378 70.8399 45.0005 72.2565C43.2112 71.4517 41.2277 71.0032 39.1389 71.0032C33.5069 71.002 28.6347 74.2588 26.3033 78.9914Z" fill="#DFEFFF"/>
<path fillRule="evenodd" clipRule="evenodd" d="M26.3033 78.9914C14.541 81.4708 5.89362 89.7584 5.89362 99.6035H39.1378H61.4007H189.791H209.149H238.543C235.533 93.4141 228.9 88.5844 220.628 86.6495C219.142 79.7903 213.479 74.4873 206.437 73.5334C206.438 73.4624 206.44 73.3902 206.44 73.3192C206.44 64.0078 198.891 56.4598 189.581 56.4598C184.512 56.4598 179.967 58.6977 176.877 62.2362C173.334 59.5498 169.054 57.7865 164.391 57.3084C164.403 57.093 164.41 56.8752 164.41 56.6563C164.41 50.3379 159.288 45.2159 152.969 45.2159C150.415 45.2159 148.057 46.0538 146.154 47.4668C145.303 34.5933 134.596 24.4133 121.508 24.4133C114.556 24.4133 108.276 27.2856 103.787 31.9093C102.509 34.8916 101.801 38.1732 101.801 41.6218C101.801 43.3307 101.975 44.9994 102.305 46.6112H101.277C99.7337 41.4691 94.9656 37.7212 89.3217 37.7212C83.9903 37.7212 79.44 41.0644 77.653 45.7686C74.8387 44.6053 71.7559 43.9627 68.5203 43.9627C55.3095 43.9627 44.5994 54.6716 44.5994 67.8824C44.5994 69.3759 44.7366 70.8387 44.9994 72.2553C43.21 71.4505 41.2265 71.002 39.1378 71.002C33.5069 71.002 28.6347 74.2588 26.3033 78.9914Z" fill="#DFEFFF"/>
<path fillRule="evenodd" clipRule="evenodd" d="M181.133 53.9237C181.492 53.6266 182.022 53.6775 182.317 54.0361C182.615 54.3935 182.564 54.9237 182.206 55.2195C180.557 56.5888 179.156 58.2018 178.072 59.9936C177.015 61.7415 176.26 63.6599 175.871 65.6907C175.784 66.1475 175.343 66.4457 174.885 66.3593C174.849 66.3522 174.814 66.3427 174.778 66.3309C174.206 66.1747 173.614 66.054 173.009 65.9723C172.415 65.893 171.796 65.8504 171.155 65.8504C167.358 65.8504 163.919 67.3901 161.43 69.8789C158.94 72.3677 157.402 75.8068 157.402 79.6044C157.402 80.0707 157.025 80.447 156.559 80.447C156.095 80.447 155.718 80.0707 155.718 79.6044C155.718 75.3417 157.446 71.4824 160.238 68.6883C163.031 65.8942 166.893 64.1664 171.155 64.1664C171.847 64.1664 172.542 64.2149 173.232 64.3084C173.628 64.3617 174.017 64.4303 174.406 64.5143C174.868 62.6007 175.623 60.7912 176.63 59.1261C177.811 57.1699 179.34 55.4124 181.133 53.9237Z" fill="#79C8FF"/>
<path fillRule="evenodd" clipRule="evenodd" d="M146.45 37.4786C146.552 37.9318 146.269 38.3804 145.816 38.4821C145.364 38.5839 144.913 38.2999 144.811 37.8466C144.037 34.4347 142.347 31.4655 140.058 29.1388C137.693 26.7352 134.69 25.0193 131.398 24.211C130.946 24.0997 130.67 23.6441 130.781 23.1932C130.893 22.7435 131.348 22.4666 131.798 22.5778C135.392 23.4607 138.674 25.3352 141.256 27.9601C143.757 30.5022 145.604 33.7472 146.45 37.4786Z" fill="#79C8FF"/>
<path fillRule="evenodd" clipRule="evenodd" d="M54.2125 57.6977C54.0503 58.132 53.5651 58.3521 53.1308 58.1888C52.6976 58.0255 52.4764 57.5403 52.642 57.1059C53.642 54.455 55.4338 52.1923 57.7297 50.6065C59.9628 49.0644 62.667 48.1603 65.5818 48.1603C66.0469 48.1603 66.4244 48.5366 66.4244 49.0029C66.4244 49.468 66.0481 49.8455 65.5818 49.8455C63.0161 49.8455 60.6409 50.6372 58.6847 51.9887C56.6669 53.3828 55.0941 55.3686 54.2125 57.6977Z" fill="#79C8FF"/>
<path fillRule="evenodd" clipRule="evenodd" d="M107.309 48.532C107.144 48.0976 107.365 47.6136 107.798 47.4491C108.232 47.2858 108.717 47.5047 108.879 47.9391C109.761 50.2669 111.335 52.2539 113.35 53.648C115.307 55.0007 117.683 55.7924 120.248 55.7924C120.714 55.7924 121.089 56.1699 121.089 56.635C121.089 57.1001 120.714 57.4776 120.248 57.4776C117.333 57.4776 114.63 56.5735 112.395 55.0302C110.102 53.4432 108.309 51.1817 107.309 48.532Z" fill="#DFEFFF"/>
<path fillRule="evenodd" clipRule="evenodd" d="M213.963 81.659C214.127 81.2246 214.612 81.0045 215.046 81.1678C215.479 81.3311 215.699 81.8164 215.536 82.2507C214.535 84.9016 212.742 87.1643 210.446 88.7502C208.213 90.2922 205.509 91.1963 202.594 91.1963C202.129 91.1963 201.751 90.82 201.751 90.3537C201.751 89.8898 202.129 89.5111 202.594 89.5111C205.16 89.5111 207.536 88.7194 209.491 87.3667C211.509 85.9738 213.083 83.988 213.963 81.659Z" fill="#DFEFFF"/>
<path fillRule="evenodd" clipRule="evenodd" d="M164.319 54.7959C164.482 54.3615 164.966 54.1426 165.401 54.3059C165.835 54.4692 166.055 54.9544 165.891 55.3888C164.889 58.0397 163.098 60.3013 160.802 61.8871C158.57 63.4291 155.864 64.3332 152.951 64.3332C152.486 64.3332 152.108 63.9557 152.108 63.4906C152.108 63.0255 152.486 62.648 152.951 62.648C155.514 62.648 157.892 61.8563 159.848 60.5036C161.866 59.1107 163.439 57.1237 164.319 54.7959Z" fill="#DFEFFF"/>
<path fillRule="evenodd" clipRule="evenodd" d="M45.868 73.5878C45.4195 73.7109 44.9568 73.4482 44.8337 73.002C44.7106 72.5559 44.9721 72.0908 45.4195 71.9677C46.0834 71.7842 46.7627 71.6458 47.455 71.5523C48.1462 71.4588 48.8385 71.4103 49.532 71.4103C53.7947 71.4103 57.654 73.1369 60.4481 75.931C63.2422 78.7252 64.9688 82.5855 64.9688 86.8471C64.9688 87.3134 64.5937 87.6897 64.1262 87.6897C63.6611 87.6897 63.2836 87.3134 63.2836 86.8471C63.2836 83.0495 61.7451 79.6104 59.2575 77.1216C56.7687 74.6328 53.3296 73.0943 49.532 73.0943C48.8917 73.0943 48.274 73.1357 47.6799 73.2162C47.0598 73.3002 46.4562 73.4257 45.868 73.5878Z" fill="#DFEFFF"/>
<path fillRule="evenodd" clipRule="evenodd" d="M77.5086 46.7496C77.15 46.4526 77.1003 45.9236 77.3961 45.565C77.6932 45.2076 78.2234 45.1567 78.5808 45.4537C80.3773 46.9425 81.9015 48.6999 83.085 50.655C84.0909 52.3189 84.8483 54.1296 85.311 56.042C85.6957 55.9592 86.0874 55.8905 86.4826 55.8373C87.1738 55.7438 87.8673 55.6953 88.5596 55.6953C92.8235 55.6953 96.6816 57.4231 99.4757 60.2172C102.27 63.0113 103.998 66.8705 103.998 71.1333C103.998 71.5996 103.621 71.9759 103.155 71.9759C102.69 71.9759 102.312 71.5996 102.312 71.1333C102.312 67.3368 100.773 63.8977 98.2851 61.4089C95.7952 58.9202 92.3585 57.3805 88.5596 57.3805C87.9194 57.3805 87.3016 57.4231 86.7075 57.5024C86.1028 57.5841 85.5122 57.7048 84.9371 57.861C84.9027 57.8716 84.8649 57.8823 84.8294 57.8882C84.3737 57.9758 83.9335 57.6764 83.8459 57.2207C83.4566 55.1911 82.7016 53.2716 81.6436 51.5236C80.5595 49.7319 79.1583 48.1189 77.5086 46.7496Z" fill="#DFEFFF"/>
<path fillRule="evenodd" clipRule="evenodd" d="M1.19887 99.6023H257.511C259.819 99.6023 261.709 101.492 261.709 103.801C261.709 106.111 259.819 108 257.511 108H1.19887C-1.11122 108 -3 106.11 -3 103.801C-3.00118 101.492 -1.11122 99.6023 1.19887 99.6023Z" fill="#DFEFFF"/>
</svg>
