<svg width="257" height="90" viewBox="0 0 257 90" fill="none" xmlns="http://www.w3.org/2000/svg">
<path fillRule="evenodd" clipRule="evenodd" d="M143.353 80.8383H251.891C254.41 80.8383 256.47 82.8994 256.47 85.4185C256.47 87.9377 254.409 89.9988 251.891 89.9988H143.353C140.835 89.9988 138.774 87.9377 138.774 85.4185C138.774 82.8994 140.835 80.8383 143.353 80.8383Z" fill="#DFEFFF"/>
<path fillRule="evenodd" clipRule="evenodd" d="M222.938 42.9216C221.206 42.9216 219.518 43.11 217.894 43.4649C215.892 35.4014 208.605 29.4223 199.921 29.4223C199.313 29.4223 198.713 29.452 198.12 29.5087C198.28 28.3498 198.362 27.165 198.362 25.961C198.362 11.6228 186.738 0 172.401 0C158.643 0 147.386 10.7039 146.498 24.2381C143.713 22.6907 140.508 21.8066 137.094 21.8066C126.389 21.8066 117.71 30.4857 117.71 41.1909C117.71 41.6052 117.724 42.0156 117.75 42.4234C113.896 40.103 109.383 38.7685 104.556 38.7685C90.4105 38.7685 78.9412 50.2352 78.9412 64.3823C78.9412 78.5295 90.4092 89.9987 104.556 89.9987C133.318 89.9987 190.175 89.9987 222.937 89.9987C235.937 89.9987 246.474 79.46 246.474 66.4601C246.477 53.459 235.94 42.9216 222.938 42.9216Z" fill="#DFEFFF"/>
<path fillRule="evenodd" clipRule="evenodd" d="M166.001 5.8011C166.498 5.70818 166.977 6.03726 167.071 6.53284C167.164 7.0297 166.836 7.5098 166.339 7.60143C163.157 8.19767 160.363 9.9038 158.375 12.303C156.421 14.6582 155.248 17.6859 155.248 20.9884C155.248 21.4956 154.837 21.9048 154.329 21.9048C153.822 21.9048 153.411 21.4956 153.411 20.9884C153.411 17.2432 154.744 13.809 156.961 11.1324C159.216 8.41318 162.386 6.47865 166.001 5.8011Z" fill="#B7E0FF"/>
<path fillRule="evenodd" clipRule="evenodd" d="M236.336 72.9994C236.514 72.5271 237.043 72.2857 237.517 72.4651C237.99 72.6445 238.229 73.1723 238.051 73.6459C237.048 76.3006 235.252 78.5643 232.953 80.153C230.718 81.6991 228.008 82.6038 225.09 82.6038C224.583 82.6038 224.171 82.1934 224.171 81.6849C224.171 81.1777 224.583 80.7673 225.09 80.7673C227.627 80.7673 229.978 79.9826 231.913 78.6456C233.907 77.2686 235.465 75.3018 236.336 72.9994Z" fill="#B7E0FF"/>
<path fillRule="evenodd" clipRule="evenodd" d="M218.21 41.982C218.713 41.9317 219.162 42.3008 219.211 42.8041C219.26 43.3087 218.892 43.7553 218.39 43.8056C215.942 44.0495 213.64 45.0458 211.789 46.619C209.995 48.1419 208.631 50.2081 207.976 52.6563C207.845 53.1467 207.342 53.4358 206.852 53.3067C206.362 53.1751 206.072 52.6731 206.202 52.1827C206.957 49.3628 208.533 46.9804 210.604 45.2188C212.733 43.4094 215.385 42.2634 218.21 41.982Z" fill="#B7E0FF"/>
<path fillRule="evenodd" clipRule="evenodd" d="M170.35 46.7429C168.758 46.7429 167.208 46.9159 165.713 47.2424C163.874 39.8333 157.179 34.3393 149.199 34.3393C148.641 34.3393 148.09 34.3677 147.545 34.4206C147.692 33.3533 147.768 32.2654 147.768 31.1607C147.768 17.9866 137.089 7.30719 123.916 7.30719C111.274 7.30719 100.93 17.1413 100.115 29.5784C97.5563 28.1549 94.6099 27.3445 91.4751 27.3445C81.6384 27.3445 73.664 35.3189 73.664 45.1555C73.664 45.5363 73.677 45.9131 73.7002 46.2886C70.1589 44.1566 66.011 42.9293 61.5779 42.9293C48.5794 42.9293 38.0419 53.4655 38.0419 66.464C38.0419 67.2796 38.0832 68.0863 38.1645 68.88C24.5091 70.1731 13.9355 79.1348 13.9355 90H61.5779H69.209H182.786C186.926 90 197.576 75.0669 190.337 60.0938C186.644 52.455 179.362 46.7429 170.35 46.7429Z" fill="#DFEFFF"/>
<path fillRule="evenodd" clipRule="evenodd" d="M109.562 12.1068C104.187 16.163 100.584 22.4416 100.115 29.5759C97.5563 28.1524 94.6099 27.3419 91.4751 27.3419C81.6384 27.3419 73.664 35.3163 73.664 45.1529C73.664 45.5336 73.677 45.9105 73.7002 46.2861C70.1589 44.1541 66.011 42.9267 61.5779 42.9267C48.5794 42.9267 38.0419 53.4629 38.0419 66.4614C38.0419 67.2771 38.0832 68.0837 38.1645 68.8774C24.5091 70.1705 13.9355 79.1322 13.9355 89.9974H61.5779H69.209H170.35C172.677 89.9974 174.918 89.6283 177.018 88.9469C182.086 84.9901 185.346 78.8225 185.346 71.8921C185.346 59.9467 175.662 50.2648 163.718 50.2648C162.127 50.2648 160.576 50.4391 159.083 50.7656C157.243 43.3552 150.548 37.8613 142.569 37.8613C142.01 37.8613 141.459 37.8884 140.914 37.9413C141.06 36.8766 141.137 35.7873 141.137 34.6813C141.137 21.5072 130.458 10.8291 117.284 10.8291C114.58 10.8291 111.983 11.2795 109.562 12.1068Z" fill="#DFEFFF"/>
<path fillRule="evenodd" clipRule="evenodd" d="M166.386 45.5518C166.869 45.4034 167.381 45.6757 167.531 46.1584C167.679 46.641 167.408 47.1547 166.924 47.3031C164.113 48.1652 161.364 49.5435 159.11 51.3864C157.123 53.0087 155.524 54.991 154.616 57.2959C154.431 57.7683 153.898 58.0006 153.429 57.816C153.373 57.7941 153.321 57.7682 153.275 57.7373C152.755 57.4443 152.217 57.1862 151.663 56.9655C151.111 56.7448 150.527 56.5551 149.913 56.4003C146.263 55.484 142.589 56.1331 139.6 57.9218C136.611 59.7131 134.304 62.6427 133.389 66.2911C133.266 66.7828 132.768 67.081 132.276 66.9584C131.785 66.8345 131.485 66.3389 131.608 65.8472C132.648 61.7083 135.266 58.3839 138.659 56.3525C142.054 54.3212 146.219 53.583 150.357 54.6219C151.029 54.7909 151.69 55.0078 152.337 55.2646C152.671 55.3975 152.998 55.542 153.316 55.6943C154.381 53.4771 156.002 51.5581 157.955 49.9655C160.398 47.9677 163.362 46.4797 166.386 45.5518Z" fill="#B7E0FF"/>
<path fillRule="evenodd" clipRule="evenodd" d="M46.5816 58.7645C46.4035 59.2382 45.8757 59.4769 45.4007 59.2988C44.9271 59.1194 44.6871 58.5916 44.8651 58.118C46.0796 54.9057 48.2516 52.1646 51.034 50.2403C53.7404 48.3716 57.0197 47.2746 60.552 47.2746C61.0591 47.2746 61.4695 47.685 61.4695 48.1922C61.4695 48.7007 61.0591 49.1111 60.552 49.1111C57.4004 49.1111 54.4798 50.0855 52.0742 51.7477C49.5976 53.459 47.6631 55.9034 46.5816 58.7645Z" fill="#B7E0FF"/>
<path fillRule="evenodd" clipRule="evenodd" d="M110.739 46.237C110.739 46.7442 110.328 47.1559 109.822 47.1559C109.313 47.1559 108.903 46.7442 108.903 46.237C108.903 42.7616 107.923 39.5183 106.225 36.7707C104.466 33.9263 101.94 31.6059 98.9359 30.1024C98.4842 29.8753 98.3009 29.3255 98.5268 28.8751C98.7526 28.4208 99.3024 28.2401 99.7541 28.466C103.064 30.1231 105.847 32.6784 107.781 35.8093C109.658 38.8447 110.739 42.417 110.739 46.237Z" fill="#DFEFFF"/>
<path fillRule="evenodd" clipRule="evenodd" d="M187.103 59.6692C187.321 60.1273 187.127 60.6745 186.67 60.8926C186.213 61.1107 185.664 60.9158 185.446 60.4577C184.212 57.8637 182.074 55.4852 179.578 53.7648C177.166 52.1013 174.435 51.0637 171.891 51.0637C171.384 51.0637 170.973 50.6533 170.973 50.1448C170.973 49.6376 171.384 49.2259 171.891 49.2259C174.815 49.2259 177.911 50.39 180.618 52.2575C183.37 54.1546 185.733 56.7899 187.103 59.6692Z" fill="#B7E0FF"/>
<path fillRule="evenodd" clipRule="evenodd" d="M139.631 23.3876C139.809 23.8599 139.571 24.389 139.097 24.5671C138.623 24.7452 138.094 24.5065 137.916 24.0328C136.724 20.8774 134.589 18.1827 131.857 16.2946C129.205 14.4607 125.982 13.3883 122.507 13.3883C122 13.3883 121.589 12.9766 121.589 12.4694C121.589 11.9622 122 11.5505 122.507 11.5505C126.362 11.5505 129.943 12.7469 132.897 14.7872C135.935 16.8857 138.306 19.8811 139.631 23.3876Z" fill="#B7E0FF"/>
<path fillRule="evenodd" clipRule="evenodd" d="M4.57892 80.8383H198.147C200.666 80.8383 202.726 82.8993 202.726 85.4185C202.726 87.9377 200.665 89.9987 198.147 89.9987H4.57892C2.05974 89.9987 0 87.9377 0 85.4185C0 82.8993 2.06103 80.8383 4.57892 80.8383Z" fill="#DFEFFF"/>
<path fillRule="evenodd" clipRule="evenodd" d="M75.0747 73.7247C75.2528 73.2511 75.7806 73.0111 76.2543 73.1905C76.7279 73.3686 76.9667 73.8977 76.7886 74.37C75.7858 77.0247 73.9906 79.2922 71.6921 80.8796C69.4556 82.4244 66.7454 83.3304 63.8287 83.3304C63.3215 83.3304 62.9111 82.9187 62.9111 82.4116C62.9111 81.9031 63.3215 81.4927 63.8287 81.4927C66.366 81.4927 68.7174 80.708 70.6519 79.3697C72.6471 77.9939 74.2049 76.0284 75.0747 73.7247Z" fill="#DFEFFF"/>
</svg>
