<svg width="353" height="89" viewBox="0 0 353 89" fill="none" xmlns="http://www.w3.org/2000/svg">
<path fillRule="evenodd" clipRule="evenodd" d="M249.578 11.5114C249.309 11.5114 249.043 11.5253 248.782 11.5505C248.551 5.13301 243.279 0 236.805 0C230.189 0 224.823 5.36539 224.823 11.9824C224.823 13.0472 224.962 14.0779 225.223 15.0618C224.886 15.0074 224.544 14.9797 224.192 14.9797C220.622 14.9797 217.728 17.8758 217.728 21.4439C217.728 25.0145 220.622 27.9106 224.192 27.9106C231.726 27.9106 241.155 27.9106 249.578 27.9106C254.107 27.9106 257.779 24.239 257.779 19.711C257.779 15.183 254.107 11.5114 249.578 11.5114Z" fill="#B7E0FF"/>
<path fillRule="evenodd" clipRule="evenodd" d="M245.184 16.0721C245.184 16.5698 244.782 16.9714 244.286 16.9714C243.79 16.9714 243.387 16.5698 243.387 16.0721C243.387 14.3835 244.07 12.8552 245.177 11.75C246.283 10.6436 247.811 9.95905 249.5 9.95905C249.998 9.95905 250.399 10.3607 250.399 10.8583C250.399 11.3547 249.998 11.7564 249.5 11.7564C248.308 11.7564 247.23 12.2401 246.448 13.0206C245.667 13.8012 245.184 14.8798 245.184 16.0721Z" fill="#B7E0FF"/>
<path fillRule="evenodd" clipRule="evenodd" d="M220.171 23.0997C219.997 22.6361 220.23 22.1196 220.694 21.9453C221.156 21.7697 221.674 22.0046 221.849 22.4682C222.063 23.0289 222.442 23.5089 222.928 23.8461C223.399 24.1695 223.973 24.3602 224.593 24.3602C225.09 24.3602 225.492 24.7631 225.492 25.2595C225.492 25.7571 225.09 26.1588 224.593 26.1588C223.599 26.1588 222.673 25.8493 221.91 25.3214C221.126 24.7783 220.513 24.0053 220.171 23.0997Z" fill="#B7E0FF"/>
<path fillRule="evenodd" clipRule="evenodd" d="M136.601 21.7559C123.739 21.7559 112.613 29.1712 107.256 39.96C104.043 38.4406 100.45 37.5893 96.6583 37.5893C85.1861 37.5893 75.5327 45.3684 72.6846 55.9387C70.9833 55.0218 69.0382 54.5014 66.9706 54.5014C60.3119 54.5014 54.9149 59.8971 54.9149 66.5558C54.9149 66.6379 54.9162 66.72 54.9174 66.8021C50.7065 64.0323 45.6682 62.4168 40.2498 62.4168C25.5392 62.4168 13.606 74.3046 13.5327 88.9988H47.0007H66.9681H126.976H180.345H245.835H262.79H280.568H280.8H281.099H281.48H281.648H282.156H282.213H282.792H282.831H283.388H283.505H284H284.178H284.624H284.848H285.263H285.515H285.913H286.182H286.578H286.847H287.252H287.508H287.939H288.169H324.819C336.998 88.9988 337.092 71.4463 324.734 71.7886C324.406 71.7974 323.976 71.8075 323.479 71.8139C323.698 70.9992 323.817 70.1429 323.817 69.2575C323.817 63.8567 319.437 59.4778 314.036 59.4778C313.047 59.4778 312.092 59.6243 311.193 59.8984C308.438 55.1923 303.331 52.0334 297.486 52.0334C293.004 52.0334 288.957 53.8939 286.071 56.881C283.663 48.5512 275.979 42.4596 266.874 42.4596C255.837 42.4596 246.89 51.4082 246.89 62.4434C246.89 64.2167 247.123 65.9382 247.557 67.5763C246.998 67.4854 246.423 67.44 245.838 67.44C240.621 67.44 236.268 71.1482 235.273 76.0716H200.126C201.314 73.3889 201.976 70.4195 201.976 67.2972C201.976 49.5617 181.946 39.5887 167.803 49.5339C166.277 32.9818 153.297 21.7559 136.601 21.7559Z" fill="#DFEFFF"/>
<path fillRule="evenodd" clipRule="evenodd" d="M133.509 27.9397C125.178 27.9397 116.776 30.2536 110.434 34.8144C109.224 36.421 108.158 38.1425 107.255 39.9588C104.042 38.4393 100.449 37.5881 96.657 37.5881C85.1849 37.5881 75.5315 45.3671 72.6833 55.9375C70.982 55.0205 69.0369 54.5001 66.9693 54.5001C60.3106 54.5001 54.9136 59.8958 54.9136 66.5546C54.9136 66.6367 54.9149 66.7188 54.9162 66.8009C50.7052 64.031 45.6669 62.4156 40.2485 62.4156C25.5379 62.4156 13.6047 74.3033 13.5314 88.9975H46.9994H66.9668H126.975H180.343H245.833H262.788H280.567H280.799H281.097H281.479H281.647H282.154H282.211H282.791H282.83H283.387H283.503H283.999H284.177H284.622H284.847H285.262H285.514H285.912H286.181H286.576H286.845H287.251H287.507H287.938H288.168H324.817C327.362 88.9975 329.377 88.2309 330.863 87.0209C331.145 82.4903 328.09 77.7918 321.638 77.9725C321.31 77.9813 320.88 77.9914 320.383 77.999C320.603 77.183 320.723 76.328 320.723 75.4426C320.723 70.0418 316.342 65.6616 310.943 65.6616C309.954 65.6616 308.997 65.8094 308.099 66.0835C305.343 61.3774 300.236 58.2173 294.391 58.2173C289.908 58.2173 285.861 60.0777 282.975 63.0648C280.567 54.7351 272.884 48.6434 263.779 48.6434C257.194 48.6434 251.354 51.8288 247.714 56.7395C247.177 58.5469 246.887 60.4617 246.887 62.4434C246.887 64.2167 247.119 65.9382 247.554 67.5764C246.994 67.4854 246.419 67.44 245.835 67.44C240.617 67.44 236.264 71.1482 235.269 76.0716H200.517C200.387 76.0716 198.789 76.141 198.827 75.8228C198.939 74.9285 198.879 74.4056 198.879 73.4811C198.879 55.7455 178.851 45.7726 164.706 55.7177C163.185 39.1681 150.205 27.9397 133.509 27.9397Z" fill="#DFEFFF"/>
<path fillRule="evenodd" clipRule="evenodd" d="M119.657 58.8298C119.657 59.3262 119.257 59.7279 118.759 59.7279C118.263 59.7279 117.86 59.3262 117.86 58.8298C117.86 54.8096 116.727 51.0622 114.763 47.8844C112.73 44.5967 109.809 41.9127 106.337 40.1735C105.892 39.9525 105.714 39.4157 105.937 38.9736C106.156 38.5303 106.696 38.3535 107.138 38.5745C110.909 40.4627 114.081 43.3753 116.287 46.9446C118.423 50.4016 119.657 54.4736 119.657 58.8298Z" fill="#B7E0FF"/>
<path fillRule="evenodd" clipRule="evenodd" d="M4.87836 80.0375H349.334C351.798 80.0375 353.818 82.0545 353.818 84.5187C353.818 86.9854 351.798 89 349.334 89H4.87836C2.41417 89 0.397095 86.9854 0.397095 84.5187C0.397095 82.0545 2.41417 80.0375 4.87836 80.0375Z" fill="#DFEFFF"/>
<path fillRule="evenodd" clipRule="evenodd" d="M169.08 48.2771C169.494 48.0068 170.05 48.1243 170.32 48.5398C170.59 48.9541 170.47 49.5099 170.056 49.7789C168.36 50.8752 166.82 52.1661 165.546 53.6337C164.369 54.9877 163.414 56.4945 162.764 58.144C162.583 58.6037 162.064 58.8336 161.601 58.6517C161.548 58.6303 161.498 58.6063 161.45 58.576C160.846 58.2362 160.221 57.9356 159.577 57.6792C158.935 57.4215 158.258 57.203 157.548 57.0224C153.318 55.9627 149.061 56.7142 145.596 58.7869C142.133 60.8608 139.46 64.2584 138.398 68.4857C138.275 68.967 137.79 69.2587 137.309 69.1387C136.827 69.0187 136.535 68.5312 136.656 68.05C137.837 63.3426 140.815 59.5599 144.677 57.2498C148.539 54.9384 153.278 54.0998 157.983 55.2807C158.749 55.4727 159.502 55.719 160.237 56.0107C160.665 56.1838 161.083 56.3694 161.489 56.569C162.186 55.0799 163.104 53.7082 164.192 52.4578C165.582 50.8601 167.25 49.4593 169.08 48.2771Z" fill="#DFEFFF"/>
<path fillRule="evenodd" clipRule="evenodd" d="M200.34 72.8255C200.514 72.362 201.032 72.1283 201.494 72.3026C201.958 72.4769 202.193 72.9948 202.017 73.4583C200.879 76.4744 198.838 79.0485 196.226 80.8546C193.685 82.6102 190.607 83.6384 187.289 83.6384C186.793 83.6384 186.391 83.2355 186.391 82.7391C186.391 82.2427 186.793 81.8398 187.289 81.8398C190.233 81.8398 192.961 80.9291 195.209 79.3794C197.521 77.7804 199.329 75.4993 200.34 72.8255Z" fill="#B7E0FF"/>
<path fillRule="evenodd" clipRule="evenodd" d="M84.8338 64.7472C85.0081 65.2107 84.7732 65.7273 84.3109 65.9016C83.8473 66.0784 83.3295 65.8422 83.1552 65.38C82.1448 62.7074 80.3386 60.4251 78.0235 58.8273C75.7765 57.2738 73.0484 56.3644 70.1042 56.3644C69.6079 56.3644 69.205 55.964 69.205 55.4664C69.205 54.9687 69.6079 54.5671 70.1042 54.5671C73.421 54.5671 76.499 55.5952 79.0415 57.3508C81.6535 59.1557 83.692 61.731 84.8338 64.7472Z" fill="#B7E0FF"/>
<path fillRule="evenodd" clipRule="evenodd" d="M21.7993 80.2774C21.625 80.741 21.1071 80.9759 20.6436 80.8016C20.1801 80.6261 19.9464 80.1095 20.1207 79.6459C21.4911 76.021 23.9427 72.9266 27.0813 70.7567C30.1353 68.6461 33.8361 67.4122 37.8222 67.4122C38.3198 67.4122 38.7202 67.8126 38.7202 68.3102C38.7202 68.8078 38.3186 69.2082 37.8222 69.2082C34.2087 69.2082 30.8578 70.326 28.1006 72.2332C25.2588 74.1947 23.0396 76.9961 21.7993 80.2774Z" fill="#DFEFFF"/>
<path fillRule="evenodd" clipRule="evenodd" d="M282.887 54.5936C283.061 55.0571 282.828 55.575 282.364 55.7506C281.901 55.9249 281.383 55.6899 281.208 55.2277C280.255 52.7054 278.445 50.7136 276.155 49.3267C273.69 47.8338 270.672 47.0431 267.564 47.0431C267.066 47.0431 266.665 46.6428 266.665 46.1439C266.665 45.6475 267.066 45.2446 267.564 45.2446C270.993 45.2446 274.335 46.1275 277.081 47.7896C279.703 49.376 281.782 51.6709 282.887 54.5936Z" fill="#DFEFFF"/>
<path fillRule="evenodd" clipRule="evenodd" d="M322.363 72.5881C322.536 72.1245 323.054 71.8909 323.518 72.0652C323.98 72.2407 324.216 72.7586 324.039 73.2209C322.9 76.237 320.862 78.8123 318.25 80.6159C315.707 82.3728 312.629 83.4009 309.312 83.4009C308.816 83.4009 308.413 82.998 308.413 82.5017C308.413 82.0065 308.816 81.6024 309.312 81.6024C312.257 81.6024 314.983 80.693 317.229 79.142C319.544 77.543 321.353 75.2607 322.363 72.5881Z" fill="#B7E0FF"/>
<path fillRule="evenodd" clipRule="evenodd" d="M239.84 78.5345C239.665 78.998 239.147 79.2317 238.685 79.0574C238.22 78.8818 237.987 78.3652 238.16 77.9017C238.964 75.781 240.397 73.9698 242.236 72.7005C244.023 71.4652 246.189 70.7415 248.521 70.7415C249.017 70.7415 249.419 71.1419 249.419 71.6395C249.419 72.1372 249.017 72.5388 248.521 72.5388C246.561 72.5388 244.748 73.1438 243.254 74.1757C241.713 75.2392 240.512 76.7561 239.84 78.5345Z" fill="#DFEFFF"/>
</svg>
