<svg width="25" height="24" viewBox="0 0 25 24" fill="none" xmlns="http://www.w3.org/2000/svg">
<g clip-path="url(#clip0_71_9489)">
<path d="M12.5 11.9999C13.6867 11.9999 14.8467 11.648 15.8334 10.9888C16.8201 10.3295 17.5892 9.3924 18.0433 8.29604C18.4974 7.19969 18.6162 5.99329 18.3847 4.8294C18.1532 3.66551 17.5818 2.59642 16.7426 1.7573C15.9035 0.918186 14.8344 0.346741 13.6705 0.11523C12.5067 -0.116281 11.3003 0.00253868 10.2039 0.456664C9.10754 0.91079 8.17047 1.67983 7.51118 2.66652C6.85189 3.65321 6.5 4.81325 6.5 5.99994C6.50159 7.59075 7.13424 9.11595 8.25911 10.2408C9.38399 11.3657 10.9092 11.9984 12.5 11.9999ZM12.5 1.99994C13.2911 1.99994 14.0645 2.23454 14.7223 2.67406C15.3801 3.11359 15.8928 3.7383 16.1955 4.46921C16.4983 5.20011 16.5775 6.00438 16.4231 6.7803C16.2688 7.55623 15.8878 8.26896 15.3284 8.82837C14.769 9.38778 14.0563 9.76874 13.2804 9.92308C12.5044 10.0774 11.7002 9.99821 10.9693 9.69546C10.2384 9.39271 9.61365 8.88002 9.17412 8.22222C8.7346 7.56443 8.5 6.79107 8.5 5.99994C8.5 4.93908 8.92143 3.92166 9.67157 3.17151C10.4217 2.42137 11.4391 1.99994 12.5 1.99994Z" fill="white"/>
<path d="M12.5 14.0006C10.1139 14.0033 7.82622 14.9523 6.13896 16.6396C4.45171 18.3268 3.50265 20.6145 3.5 23.0006C3.5 23.2658 3.60536 23.5202 3.79289 23.7077C3.98043 23.8953 4.23478 24.0006 4.5 24.0006C4.76522 24.0006 5.01957 23.8953 5.20711 23.7077C5.39464 23.5202 5.5 23.2658 5.5 23.0006C5.5 21.1441 6.2375 19.3636 7.55025 18.0509C8.86301 16.7381 10.6435 16.0006 12.5 16.0006C14.3565 16.0006 16.137 16.7381 17.4497 18.0509C18.7625 19.3636 19.5 21.1441 19.5 23.0006C19.5 23.2658 19.6054 23.5202 19.7929 23.7077C19.9804 23.8953 20.2348 24.0006 20.5 24.0006C20.7652 24.0006 21.0196 23.8953 21.2071 23.7077C21.3946 23.5202 21.5 23.2658 21.5 23.0006C21.4974 20.6145 20.5483 18.3268 18.861 16.6396C17.1738 14.9523 14.8861 14.0033 12.5 14.0006Z" fill="white"/>
</g>
<defs>
<clipPath id="clip0_71_9489">
<rect width="24" height="24" fill="white" transform="translate(0.5)"/>
</clipPath>
</defs>
</svg>
