<svg width="31" height="30" viewBox="0 0 31 30" fill="none" xmlns="http://www.w3.org/2000/svg">
<path d="M28.8912 5.09625C28.5396 4.6743 28.0995 4.33494 27.6019 4.10227C27.1044 3.8696 26.5617 3.74933 26.0125 3.75H5.8025L5.75 3.31125C5.64256 2.39927 5.20423 1.55842 4.51811 0.948097C3.83199 0.337779 2.94578 0.000427242 2.0275 0L1.75 0C1.41848 0 1.10054 0.131696 0.866117 0.366117C0.631696 0.600537 0.5 0.918479 0.5 1.25C0.5 1.58152 0.631696 1.89946 0.866117 2.13388C1.10054 2.3683 1.41848 2.5 1.75 2.5H2.0275C2.33367 2.50004 2.62917 2.61245 2.85796 2.81589C3.08676 3.01934 3.23293 3.29969 3.26875 3.60375L4.98875 18.2288C5.16732 19.7497 5.8981 21.1522 7.04239 22.17C8.18667 23.1878 9.66482 23.75 11.1962 23.75H24.25C24.5815 23.75 24.8995 23.6183 25.1339 23.3839C25.3683 23.1495 25.5 22.8315 25.5 22.5C25.5 22.1685 25.3683 21.8505 25.1339 21.6161C24.8995 21.3817 24.5815 21.25 24.25 21.25H11.1962C10.4226 21.2478 9.6685 21.0064 9.03742 20.5588C8.40634 20.1113 7.92914 19.4794 7.67125 18.75H22.5712C24.0366 18.7501 25.4554 18.2353 26.5798 17.2955C27.7041 16.3558 28.4625 15.0509 28.7225 13.6088L29.7038 8.16625C29.8017 7.62626 29.7797 7.07133 29.6393 6.5408C29.4989 6.01026 29.2435 5.5171 28.8912 5.09625ZM27.25 7.7225L26.2675 13.165C26.1114 14.0312 25.6556 14.815 24.9798 15.379C24.3041 15.943 23.4514 16.2513 22.5712 16.25H7.27375L6.0975 6.25H26.0125C26.1961 6.2489 26.3777 6.28828 26.5444 6.36532C26.7111 6.44236 26.8588 6.55518 26.9769 6.69576C27.095 6.83634 27.1808 7.00121 27.228 7.17867C27.2752 7.35613 27.2827 7.54181 27.25 7.7225Z" fill="#C83A81"/>
<path d="M9.25018 30.0008C10.6309 30.0008 11.7502 28.8815 11.7502 27.5008C11.7502 26.1201 10.6309 25.0008 9.25018 25.0008C7.86947 25.0008 6.75018 26.1201 6.75018 27.5008C6.75018 28.8815 7.86947 30.0008 9.25018 30.0008Z" fill="#C83A81"/>
<path d="M21.75 30.0008C23.1307 30.0008 24.25 28.8815 24.25 27.5008C24.25 26.1201 23.1307 25.0008 21.75 25.0008C20.3693 25.0008 19.25 26.1201 19.25 27.5008C19.25 28.8815 20.3693 30.0008 21.75 30.0008Z" fill="#C83A81"/>
</svg>
