<svg width="31" height="30" viewBox="0 0 31 30" fill="none" >
<path d="M30.1335 27.8671L22.6722 20.4059C24.7055 17.9191 25.7052 14.746 25.4645 11.5428C25.2239 8.33968 23.7612 5.35155 21.3792 3.19654C18.9972 1.04153 15.878 -0.115498 12.6668 -0.0352078C9.45559 0.045082 6.39811 1.35654 4.12674 3.6279C1.85538 5.89927 0.543922 8.95675 0.463633 12.1679C0.383343 15.3791 1.54037 18.4983 3.69538 20.8804C5.85039 23.2624 8.83852 24.725 12.0417 24.9657C15.2448 25.2064 18.418 24.2067 20.9047 22.1734L28.366 29.6346C28.6017 29.8623 28.9175 29.9883 29.2452 29.9855C29.573 29.9826 29.8865 29.8512 30.1183 29.6194C30.35 29.3877 30.4815 29.0741 30.4843 28.7464C30.4872 28.4186 30.3612 28.1029 30.1335 27.8671ZM12.9997 22.5009C11.0219 22.5009 9.08852 21.9144 7.44403 20.8156C5.79953 19.7168 4.51781 18.155 3.76093 16.3277C3.00406 14.5005 2.80602 12.4898 3.19187 10.55C3.57773 8.61017 4.53013 6.82834 5.92866 5.42982C7.32719 4.03129 9.10901 3.07889 11.0488 2.69303C12.9886 2.30718 14.9993 2.50522 16.8266 3.26209C18.6538 4.01897 20.2156 5.30069 21.3144 6.94518C22.4132 8.58968 22.9997 10.5231 22.9997 12.5009C22.9968 15.1521 21.9422 17.6939 20.0675 19.5687C18.1928 21.4434 15.651 22.4979 12.9997 22.5009Z" fill="#AF2A69"/>

</svg>
