<svg width="29" height="37" viewBox="0 0 29 37" fill="none" xmlns="http://www.w3.org/2000/svg">
<path d="M14.0372 18.287C13.7134 20.0464 13.922 21.8355 14.0069 23.606C14.0491 24.4825 14.015 25.3511 13.9895 26.2272C13.9641 27.1046 13.9572 27.9824 13.9474 28.8601C13.9224 31.092 13.8971 33.2913 13.4878 35.4942C13.3869 36.0371 14.2287 36.1948 14.3296 35.6518C14.6515 33.919 14.7356 32.1504 14.776 30.3918C14.8162 28.6376 14.8215 26.8838 14.8815 25.1301C14.9582 22.8935 14.4747 20.6409 14.8788 18.4448C14.979 17.9016 14.1372 17.7438 14.0372 18.287Z" fill="#50AB47"/>
<path d="M8.27329 34.0274C9.34446 34.8451 11.5069 36.1087 12.9313 35.7905C15.3 35.2612 13.3376 32.1509 12.4495 31.297C11.0857 29.9857 5.98835 26.7978 3.94989 28.3118C1.21844 30.3406 7.13409 33.1577 8.27329 34.0274Z" fill="#96C93D"/>
<path d="M16.6071 35.8246C12.3094 37.7806 13.6621 33.3771 15.5492 31.4278C16.7967 30.139 18.7736 29.1825 20.5788 29.4453C22.747 29.7608 23.3784 30.8945 21.9354 32.5864C20.6461 34.0979 18.3974 35.0097 16.6071 35.8246Z" fill="#96C93D"/>
<path d="M13.947 35.8703C14.589 34.7237 15.5956 33.8088 16.6985 33.114C17.8338 32.3988 19.1418 31.8998 20.4843 31.7862C20.759 31.763 20.7241 31.3362 20.4484 31.3594C19.0437 31.4783 17.6897 31.9997 16.4961 32.7361C15.3121 33.4666 14.2458 34.4614 13.5621 35.6825C13.4268 35.924 13.8129 36.1099 13.947 35.8703Z" fill="#50AB47"/>
<path d="M13.7697 35.2767C13.0938 34.0887 12.1303 33.0594 11.0795 32.1943C9.95129 31.2654 8.65656 30.5013 7.24678 30.0951C6.68314 29.9328 6.10029 29.845 5.51358 29.8415C5.23778 29.8399 5.27514 30.2668 5.54944 30.2684C6.94821 30.2764 8.29593 30.845 9.47085 31.5655C10.6892 32.3128 11.7911 33.2947 12.6734 34.4187C12.9468 34.767 13.1973 35.1339 13.4162 35.5188C13.5531 35.759 13.9054 35.5152 13.7697 35.2767Z" fill="#50AB47"/>
<path d="M6.09254 13.2632C5.32782 12.9164 4.58081 12.5293 3.86639 12.0928C2.09598 11.0109 -0.580994 8.85928 1.33691 6.67778C2.11072 5.79771 3.81773 5.59782 4.89605 5.70439C7.55472 5.96693 9.7514 8.18237 11.2165 10.2493C12.0101 11.3688 13.2077 14.1818 11.195 14.8718C10.2324 15.2018 8.57782 14.2612 7.63642 13.9036C7.11684 13.7061 6.60082 13.4936 6.09254 13.2632Z" fill="#F280AF"/>
<path d="M14.2446 22.225C14.0926 23.0509 13.8972 23.8692 13.646 24.6678C13.0234 26.6469 11.5815 29.7641 9.00154 28.4295C7.96072 27.891 7.35481 26.2827 7.19778 25.2106C6.81081 22.5673 8.4306 19.9007 10.0828 17.98C10.9778 16.9396 13.4186 15.0985 14.574 16.8852C15.1266 17.7396 14.6131 19.5723 14.4933 20.5721C14.4274 21.124 14.3457 21.6762 14.2446 22.225Z" fill="#F280AF"/>
<path d="M22.5105 14.2946C23.3349 14.4542 24.1515 14.6571 24.9477 14.9156C26.9212 15.5562 30.0249 17.0267 28.6667 19.5943C28.1187 20.63 26.5049 21.2214 25.4315 21.3684C22.7847 21.7311 20.133 20.0871 18.2276 18.4173C17.1956 17.5128 15.377 15.0553 17.174 13.9163C18.0334 13.3716 19.8614 13.9019 20.8601 14.0306C21.4112 14.1019 21.9627 14.1887 22.5105 14.2946Z" fill="#F280AF"/>
<path d="M15.5941 6.36374C15.7821 5.54529 16.0132 4.73636 16.2991 3.94946C17.0079 1.99955 18.585 -1.05145 21.104 0.394944C22.1203 0.978533 22.6552 2.61186 22.7649 3.68989C23.0356 6.34766 21.3005 8.94069 19.5658 10.787C18.6261 11.787 16.107 13.5195 15.0311 11.6839C14.5165 10.8061 15.1098 8.9977 15.2732 8.00407C15.3633 7.4556 15.4691 6.90759 15.5941 6.36374Z" fill="#F280AF"/>
<path d="M0.0408411 18.3308C-0.382748 15.4694 2.57196 14.187 5.04146 13.7779C6.84282 13.4796 11.6595 12.8104 12.7452 14.8583C13.7926 16.8336 10.9933 18.5319 9.59273 19.1981C7.15062 20.3596 0.700634 22.784 0.0408411 18.3308Z" fill="#F05689"/>
<path d="M9.51757 0.178984C12.2652 -0.724751 14.0313 1.96904 14.854 4.33316C15.4541 6.05758 16.9322 10.6906 15.0985 12.1085C13.3299 13.4763 11.1807 11.0063 10.2862 9.73935C8.72665 7.53017 5.24135 1.58594 9.51757 0.178984Z" fill="#F05689"/>
<path d="M20.1929 28.0641C17.4007 28.8193 15.7815 26.035 15.0866 23.6303C14.5796 21.8761 13.3519 17.1708 15.2586 15.853C17.098 14.5819 19.1119 17.1635 19.9372 18.4764C21.3764 20.7659 24.5383 26.8883 20.1929 28.0641Z" fill="#F05689"/>
<path d="M28.969 10.7785C29.3366 13.6475 26.3575 14.8721 23.8805 15.2329C22.0736 15.4961 17.2447 16.071 16.1991 14.0025C15.1906 12.007 18.0225 10.3639 19.4357 9.72507C21.9002 8.61132 28.3964 6.31329 28.969 10.7785Z" fill="#F05689"/>
<path d="M13.9024 8.10424C17.1751 7.96448 20.3829 11.3328 19.8089 14.6895C18.9818 19.5254 12.2453 20.8249 9.539 17.0847C7.38608 14.1094 9.09681 9.8486 12.3185 8.46517C12.8375 8.24221 13.3709 8.12686 13.9024 8.10424Z" fill="#FEBC12"/>
</svg>
