<svg width="51" height="47" viewBox="0 0 51 47" fill="none" xmlns="http://www.w3.org/2000/svg">
<path d="M31.5034 18.5733C30.1847 19.8155 28.5749 21.387 27.0435 21.1557C25.5265 20.9266 24.6656 19.4386 24.9149 17.984C25.5123 14.4979 28.0667 10.0164 29.8283 6.92357C31.0598 4.76131 32.2042 1.58087 35.1994 1.58152C37.5364 1.58198 39.7026 3.25621 40.6593 5.32968C42.9605 10.3177 34.5016 15.7489 31.5034 18.5733Z" fill="#A7DDE9"/>
<path d="M15.2369 24.7232C12.8221 25.9268 10.3595 27.2297 8.18687 28.6533C5.85486 30.1814 6.21117 32.4327 8.02479 34.5057C9.75821 36.487 11.0276 37.1545 13.6467 35.9785C16.8017 34.5618 19.5821 30.7376 21.6372 28.0452C22.5696 26.8239 26.3281 22.6337 22.8626 21.8991C21.87 21.6887 20.3542 22.7205 19.4242 22.9949C17.865 23.4552 16.6927 23.9976 15.2369 24.7232Z" fill="#A7DDE9"/>
<path d="M20.5867 28.8678C19.6111 30.8102 18.6526 32.8397 17.9395 34.8069C17.1742 36.9185 18.4912 38.1979 20.6618 38.6585C22.7364 39.0986 23.8773 38.9158 24.9979 36.8925C26.3477 34.4551 26.2931 30.6465 26.3177 27.918C26.3289 26.6802 26.7282 22.1632 24.1391 23.3634C23.3976 23.7072 22.9187 25.1046 22.4517 25.7308C21.6685 26.7809 21.1747 27.6969 20.5867 28.8678Z" fill="#6CBCC9"/>
<path d="M34.5317 23.3541C36.7049 23.3941 38.9492 23.381 41.0314 23.1736C43.2664 22.951 43.8507 21.2102 43.3275 19.0538C42.8276 16.9929 42.1695 16.043 39.8606 15.9073C37.0792 15.7438 33.6686 17.4395 31.1975 18.5969C30.0764 19.122 25.8307 20.7145 28.0323 22.5303C28.6629 23.0504 30.13 22.8782 30.8966 23.0285C32.1821 23.2808 33.2216 23.33 34.5317 23.3541Z" fill="#6CBCC9"/>
<path d="M36.3889 28.8512C36.9096 29.6269 37.4081 30.4594 37.8169 31.3038C38.7644 33.2622 39.229 35.2845 38.3715 36.813C37.7502 36.6691 37.345 36.259 36.9521 35.6639C37.2732 36.15 36.9638 37.1235 36.4033 37.4123C36.3246 37.4529 36.2409 37.4799 36.1534 37.4902C35.0814 37.6161 35.2722 36.2943 34.8885 35.6447C34.6684 35.272 34.4194 34.9073 34.1508 34.5483C33.5984 33.8093 32.9651 33.0953 32.3383 32.3897C31.8003 31.7843 31.2671 31.1852 30.7945 30.5827C30.6331 30.3772 30.3806 30.0852 30.0684 29.7304C29.4661 29.046 28.6428 28.1273 27.829 27.1404C27.1414 26.307 26.4605 25.4248 25.9251 24.5952C25.1686 23.422 24.7029 22.3527 24.9209 21.6718C25.4418 20.0641 27.9679 20.4069 29.0603 21.1261C29.0753 21.1359 29.0904 21.146 29.1052 21.156C30.2131 21.8915 31.2001 22.776 32.1467 23.7421C32.713 24.3202 33.2649 24.9274 33.8192 25.5493C33.9139 25.6556 34.0139 25.7692 34.1184 25.8905C34.7736 26.6482 35.6066 27.6857 36.3889 28.8512Z" fill="#FEBC12"/>
<path d="M32.1465 23.742C31.9605 24.3706 31.456 24.9706 30.9379 25.3925C30.3798 25.8468 29.7697 26.2186 29.176 26.6063C28.582 26.9944 28.2869 27.124 27.8289 27.1404C27.1413 26.3071 26.4604 25.4249 25.925 24.5953C27.2553 23.9286 28.8782 22.4405 29.1051 21.156C30.2128 21.8914 31.1999 22.7758 32.1465 23.742Z" fill="black"/>
<path d="M36.3889 28.8513C36.2216 29.248 35.9485 29.6161 35.6513 29.94C34.9302 30.7255 33.4795 31.9227 32.3381 32.3899C31.8001 31.7844 31.2668 31.1853 30.7942 30.5828C30.6329 30.3773 30.3803 30.0853 30.0681 29.7305C30.9559 29.212 31.9429 28.4311 32.3077 28.1272C32.9188 27.619 33.6202 27.021 33.9857 26.2976C34.0476 26.1746 34.0865 26.0346 34.1181 25.8905C34.7736 26.6482 35.6067 27.6857 36.3889 28.8513Z" fill="black"/>
<path d="M37.8167 31.3039C38.7642 33.2623 39.2288 35.2845 38.3714 36.8131C37.75 36.6691 37.3449 36.259 36.952 35.6639C37.2731 36.1501 36.9636 37.1235 36.4032 37.4123C36.3244 37.4529 36.2408 37.4799 36.1533 37.4903C35.0813 37.6161 35.272 36.2944 34.8883 35.6448C34.6683 35.2721 34.4193 34.9074 34.1507 34.5483C34.845 34.1304 35.511 33.5512 35.991 33.1585C36.693 32.5843 37.2564 31.94 37.8167 31.3039Z" fill="black"/>
<path d="M22.1944 11.346C25.6388 11.0373 27.8477 14.5116 28.7128 17.7029C29.5929 20.9494 25.9029 23.221 22.9206 23.8052C21.3521 24.1123 19.4873 24.1897 17.973 23.3863C16.1408 22.4142 15.2978 20.2821 15.3444 18.2453C15.4317 14.4138 18.7794 11.6521 22.1944 11.346Z" fill="black"/>
<path d="M15.9936 19.7114C16.936 21.3919 19.39 21.2026 20.5521 19.851C21.8899 18.2949 20.3875 15.6992 18.4986 15.5903C17.0712 15.5081 15.8515 16.4626 15.6893 17.9007C15.6056 18.6414 15.7315 19.2439 15.9936 19.7114Z" fill="white"/>
<path d="M19.8056 18.1178C20.5097 16.8641 19.2375 15.4874 17.9302 16.1C16.7677 16.6449 16.8401 18.4621 18.1497 18.7492C18.8071 18.8934 19.454 18.744 19.8056 18.1178Z" fill="black"/>
<path d="M19.1113 17.0887C19.5368 16.8744 19.4411 16.1815 18.9558 16.1101C18.5674 16.0532 18.1929 16.3675 18.3507 16.7361C18.4821 17.0429 18.7803 17.2554 19.1113 17.0887Z" fill="white"/>
<path d="M21.5583 16.604C22.5732 18.4133 25.2152 18.2095 26.4665 16.7543C27.907 15.0788 26.2892 12.284 24.2555 12.1667C22.7186 12.0782 21.4053 13.1059 21.2305 14.6544C21.1405 15.4518 21.2762 16.1006 21.5583 16.604Z" fill="white"/>
<path d="M25.6628 14.8882C26.4207 13.5383 25.0511 12.0561 23.6436 12.7155C22.3919 13.3021 22.4699 15.2587 23.8798 15.568C24.5876 15.7232 25.2843 15.5624 25.6628 14.8882Z" fill="black"/>
<path d="M24.915 13.7801C25.3732 13.5492 25.2701 12.8031 24.7476 12.7264C24.3293 12.6651 23.9262 13.0036 24.0961 13.4003C24.2376 13.7309 24.5589 13.9595 24.915 13.7801Z" fill="white"/>
<path d="M21.2632 20.8743C22.3871 20.563 23.2113 20.0857 23.8058 18.9923C24.6062 20.6204 22.8852 21.6993 21.4985 21.0415" fill="#F15D5E"/>
<path d="M14.8668 14.1015C15.5371 13.9388 16.2541 14.4095 16.6804 14.8858C16.8619 15.0885 17.2079 14.8386 17.0242 14.6333C16.453 13.9947 15.5944 13.4894 14.7148 13.703C14.6016 13.7305 14.5541 13.88 14.5916 13.9782C14.6369 14.0972 14.7538 14.129 14.8668 14.1015Z" fill="#FEBC12"/>
<path d="M21.0844 10.1187C20.6535 10.7479 20.8004 11.5754 21.052 12.2454C21.1487 12.503 21.5471 12.3509 21.4505 12.0935C21.2591 11.5839 21.0811 10.8764 21.4168 10.3862C21.571 10.161 21.2403 9.89127 21.0844 10.1187Z" fill="#FEBC12"/>
</svg>
