<svg width="41" height="40" viewBox="0 0 41 40" fill="none" xmlns="http://www.w3.org/2000/svg">
<path d="M10.3996 38.925C8.02812 38.925 6.09959 36.9965 6.09959 34.625C6.09959 32.2535 8.02812 30.325 10.3996 30.325C12.7711 30.325 14.6996 32.2535 14.6996 34.625C14.6996 36.9965 12.7711 38.925 10.3996 38.925Z" fill="#E6D9C2"/>
<path d="M31.8995 38.925C29.528 38.925 27.5995 36.9965 27.5995 34.625C27.5995 32.2535 29.528 30.325 31.8995 30.325C34.271 30.325 36.1995 32.2535 36.1995 34.625C36.1995 36.9965 34.271 38.925 31.8995 38.925Z" fill="#E6D9C2"/>
<path d="M22.0977 -1.92493H27.7264L24.9121 2.86814L22.0977 -1.92493Z" fill="#FEEBD6"/>
<path d="M13.1222 26.025L10.6647 8.82507H16.507L16.3723 10.0205C16.3307 10.386 16.3121 10.6892 16.3121 10.9751C16.3121 15.7172 20.1699 19.5751 24.912 19.5751C29.6542 19.5751 33.512 15.7172 33.512 10.9751C33.512 10.6891 33.4934 10.386 33.4518 10.0205L33.3171 8.82507H39.775L34.8615 26.025H13.1222Z" fill="#F6D4E9"/>
<path d="M24.912 19.5751C20.1699 19.5751 16.3121 15.7172 16.3121 10.9751C16.3121 10.5966 16.3429 10.2068 16.4081 9.74739L16.5407 8.82507H33.2841L33.4167 9.74739C33.482 10.2068 33.5127 10.5966 33.5127 10.9751C33.512 15.7172 29.6542 19.5751 24.912 19.5751Z" fill="#F6D4E9"/>
<path d="M10.3996 35.7C10.9933 35.7 11.4746 35.2188 11.4746 34.625C11.4746 34.0313 10.9933 33.55 10.3996 33.55C9.80585 33.55 9.32455 34.0313 9.32455 34.625C9.32455 35.2188 9.80585 35.7 10.3996 35.7Z" fill="#C20E43"/>
<path d="M31.8996 35.7C32.4933 35.7 32.9746 35.2188 32.9746 34.625C32.9746 34.0313 32.4933 33.55 31.8996 33.55C31.3058 33.55 30.8246 34.0313 30.8246 34.625C30.8246 35.2188 31.3058 35.7 31.8996 35.7Z" fill="#C20E43"/>
<path d="M39.4247 33.55H37.1664C36.6683 31.0969 34.5004 29.25 31.8997 29.25C29.2989 29.25 27.131 31.0969 26.6329 33.55H15.6636C15.1827 31.1972 13.1588 29.4156 10.6935 29.2794L7.16321 5.44244C7.12953 5.21383 7.0227 5.00387 6.86002 4.83968L-0.664965 -2.6853C-1.08489 -3.10522 -1.76499 -3.10522 -2.185 -2.6853C-2.605 -2.26538 -2.605 -1.58519 -2.185 -1.16527L5.08913 6.10743L8.56784 29.5911C6.50527 30.3428 5.02463 32.303 5.02463 34.6249C5.02463 37.5934 7.4312 39.9999 10.3996 39.9999C12.9997 39.9999 15.1683 38.1531 15.6664 35.6999H26.6328C27.1309 38.1531 29.2988 39.9999 31.8995 39.9999C34.5002 39.9999 36.6682 38.1531 37.1662 35.6999H39.4245C40.0186 35.6999 40.4995 35.2191 40.4995 34.6249C40.4997 34.0309 40.0188 33.55 39.4247 33.55ZM10.3997 37.85C8.62168 37.85 7.17471 36.4031 7.17471 34.625C7.17471 32.847 8.62168 31.4 10.3997 31.4C12.1777 31.4 13.6247 32.847 13.6247 34.625C13.6247 36.4031 12.1777 37.85 10.3997 37.85ZM31.8997 37.85C30.1216 37.85 28.6747 36.4031 28.6747 34.625C28.6747 32.847 30.1216 31.4 31.8997 31.4C33.6777 31.4 35.1247 32.847 35.1247 34.625C35.1247 36.4031 33.6777 37.85 31.8997 37.85Z" fill="#C20E43"/>
<path d="M15.7932 7.75006H11.9046C11.2818 7.75006 10.6891 8.02024 10.2806 8.49106C9.87206 8.96187 9.68788 9.5868 9.77674 10.2039L11.9267 25.2539C12.078 26.3131 12.9845 27.1 14.0545 27.1H34.0494C35.0098 27.1 35.8533 26.4636 36.1171 25.5405L40.417 10.4906C40.6026 9.84194 40.4722 9.14395 40.0659 8.6057C39.6596 8.06677 39.0239 7.74998 38.3495 7.74998H34.0309C32.943 4.70203 30.3587 2.36206 27.1695 1.5931L27.9105 0.111028C28.2438 -0.555471 28.2079 -1.34669 27.8166 -1.98094C27.4239 -2.61443 26.7323 -3 25.987 -3H23.837C23.0916 -3 22.4001 -2.61443 22.008 -1.98018C21.616 -1.34593 21.5802 -0.554715 21.9141 0.111784L22.6551 1.59385C19.4653 2.36223 16.881 4.70211 15.7932 7.75006ZM34.5203 9.90006H38.3495L34.0495 24.95H14.0546L11.9046 9.90006H15.3037C15.2644 10.2534 15.2371 10.611 15.2371 10.9751C15.2371 16.3099 19.5772 20.65 24.912 20.65C30.2469 20.65 34.587 16.3099 34.587 10.9751C34.587 10.611 34.5597 10.2534 34.5203 9.90006ZM32.437 10.9751C32.437 15.131 29.068 18.5 24.912 18.5C20.7561 18.5 17.3871 15.131 17.3871 10.9751C17.3871 10.6088 17.4222 10.252 17.4723 9.90006H32.351C32.4019 10.252 32.437 10.6089 32.437 10.9751ZM25.987 -0.84992L24.912 1.30008L23.837 -0.84992H25.987ZM24.912 3.45007C27.912 3.45007 30.4941 5.21021 31.7032 7.75006H18.1209C19.3292 5.21021 21.912 3.45007 24.912 3.45007Z" fill="#C20E43"/>

</svg>
