<svg width="213" height="233" viewBox="0 0 213 233" fill="none" xmlns="http://www.w3.org/2000/svg">
<path d="M62.5594 30.4134C65.1987 28.4086 67.5965 26.0659 69.6832 23.4253L70.8601 24.3553C71.9259 23.0066 72.9135 21.5831 73.8142 20.0899C74.9735 18.1681 76.2582 16.3983 77.6483 14.7795L76.5104 13.8023C79.5645 10.2458 83.1149 7.38346 86.9678 5.21514L87.7035 6.52234C91.5495 4.35788 95.7117 2.91131 99.9821 2.18452L99.7305 0.705784C104.206 -0.0559807 108.794 -0.0559769 113.27 0.705784L113.018 2.18452C117.288 2.91131 121.45 4.35788 125.296 6.52234L126.032 5.21513C129.885 7.38346 133.435 10.2458 136.49 13.8023L135.352 14.7795C136.742 16.3983 138.027 18.1681 139.186 20.0899C140.087 21.5831 141.074 23.0066 142.14 24.3553L143.317 23.4253C145.404 26.0658 147.801 28.4086 150.441 30.4134L149.533 31.6079C152.293 33.704 155.307 35.4442 158.502 36.786L159.083 35.403C162.139 36.6863 165.367 37.5915 168.697 38.0784L168.48 39.5626C170.181 39.8113 171.907 39.9548 173.651 39.9882C175.895 40.0313 178.07 40.259 180.167 40.6535L180.444 39.1794C185.051 40.0461 189.305 41.6897 193.109 43.9422L192.345 45.2329C196.143 47.4815 199.477 50.3627 202.241 53.6976L203.396 52.7403C206.294 56.2357 208.587 60.2084 210.165 64.4655L208.759 64.9869C210.265 69.0486 211.093 73.3764 211.142 77.7894L212.642 77.7729C212.69 82.1938 211.987 86.6997 210.434 91.1229L209.018 90.626C208.312 92.6393 207.421 94.6368 206.336 96.6017C205.494 98.1284 204.755 99.6954 204.12 101.293L205.513 101.847C204.27 104.974 203.44 108.222 203.024 111.51L201.535 111.322C201.1 114.76 201.1 118.24 201.535 121.678L203.024 121.49C203.44 124.778 204.27 128.026 205.513 131.153L204.12 131.707C204.755 133.305 205.494 134.872 206.336 136.398C207.421 138.363 208.312 140.361 209.018 142.374L210.434 141.877C211.987 146.3 212.69 150.806 212.642 155.227L211.142 155.211C211.093 159.624 210.265 163.951 208.759 168.013L210.165 168.535C208.587 172.792 206.294 176.764 203.396 180.26L202.241 179.302C199.477 182.637 196.143 185.519 192.345 187.767L193.109 189.058C189.305 191.31 185.051 192.954 180.444 193.821L180.167 192.346C178.07 192.741 175.895 192.969 173.651 193.012C171.907 193.045 170.181 193.189 168.48 193.437L168.697 194.922C165.367 195.409 162.139 196.314 159.083 197.597L158.502 196.214C155.307 197.556 152.293 199.296 149.533 201.392L150.441 202.587C147.801 204.591 145.404 206.934 143.317 209.575L142.14 208.645C141.074 209.993 140.087 211.417 139.186 212.91C138.027 214.832 136.742 216.602 135.352 218.22L136.49 219.198C133.435 222.754 129.885 225.617 126.032 227.785L125.297 226.478C121.45 228.642 117.288 230.089 113.018 230.815L113.27 232.294C108.794 233.056 104.206 233.056 99.7305 232.294L99.9821 230.815C95.7117 230.089 91.5495 228.642 87.7035 226.478L86.9678 227.785C83.1149 225.617 79.5646 222.754 76.5104 219.198L77.6483 218.22C76.2582 216.602 74.9735 214.832 73.8142 212.91C72.9135 211.417 71.9259 209.993 70.8601 208.645L69.6832 209.575C67.5965 206.934 65.1987 204.591 62.5594 202.587L63.4667 201.392C60.7071 199.296 57.693 197.556 54.4979 196.214L53.9171 197.597C50.8612 196.314 47.6335 195.409 44.3033 194.922L44.5203 193.437C42.8194 193.189 41.0929 193.045 39.3493 193.012C37.1053 192.969 34.9302 192.741 32.8333 192.346L32.556 193.821C27.9489 192.954 23.6948 191.31 19.8906 189.058L20.6548 187.767C16.8573 185.519 13.5235 182.637 10.7588 179.302L9.60404 180.26C6.70637 176.764 4.41273 172.792 2.83448 168.535L4.24094 168.013C2.73515 163.951 1.90685 159.624 1.8583 155.211L0.358395 155.227C0.309769 150.806 1.01347 146.3 2.56634 141.877L3.98166 142.374C4.68846 140.361 5.57882 138.363 6.66351 136.398C7.50632 134.872 8.2453 133.305 8.8804 131.707L7.48653 131.153C8.72996 128.026 9.55994 124.778 9.97648 121.49L11.4646 121.678C11.9001 118.24 11.9001 114.76 11.4646 111.322L9.97648 111.51C9.55994 108.222 8.72996 104.974 7.48653 101.847L8.8804 101.293C8.2453 99.6954 7.50632 98.1284 6.66351 96.6017C5.57882 94.6368 4.68846 92.6393 3.98166 90.626L2.56634 91.1229C1.01347 86.6997 0.309765 82.1938 0.358395 77.7729L1.8583 77.7894C1.90685 73.3764 2.73515 69.0486 4.24095 64.9869L2.83449 64.4655C4.41274 60.2084 6.70638 56.2357 9.60404 52.7403L10.7588 53.6976C13.5235 50.3627 16.8573 47.4815 20.6548 45.2329L19.8906 43.9422C23.6948 41.6897 27.9489 40.0461 32.556 39.1794L32.8333 40.6535C34.9302 40.259 37.1054 40.0313 39.3493 39.9882C41.0929 39.9548 42.8194 39.8113 44.5203 39.5626L44.3033 38.0784C47.6335 37.5915 50.8612 36.6863 53.9171 35.403L54.4979 36.786C57.693 35.4442 60.7071 33.704 63.4667 31.6079L62.5594 30.4134Z" stroke="url(#paint0_linear_218_477)" stroke-width="3" stroke-dasharray="12 12"/>
<defs>
<linearGradient id="paint0_linear_218_477" x1="193" y1="72" x2="4.5" y2="133" gradientUnits="userSpaceOnUse">
<stop stop-color="#FB0053"/>
<stop offset="1" stop-color="#FFB800"/>
</linearGradient>
</defs>
</svg>
